<svg xmlns="http://www.w3.org/2000/svg" width="64" height="65" viewBox="0 0 64 65">
    <g fill="none">
        <path fill="#585857" stroke="#1E1E1C" stroke-width=".949" d="M13.376 29.664s-6.592 4.384-7.296 6.784c-.576 1.888 1.856 7.68 1.856 7.68L8.256 48l4.416.768s6.112 1.952 7.84 1.28c2.208-.864 6.432-6.944 6.432-6.944l-13.568-13.44z" transform="translate(3.84 4.84)"/>
        <g>
            <path fill="#CDCBCB" stroke="#1E1E1C" stroke-width=".949" d="M.192 5.024L4.928.384s1.376-.832 2.4.672-.256 2.432-.256 2.432l-4.32 4.224M8 12.288l4.736-4.64s1.376-.832 2.4.672-.256 2.432-.256 2.432l-4.32 4.224" transform="translate(3.84 4.84) translate(18.56 22.4)"/>
            <path fill="#E1E1E1" d="M.736 5.472l4.608-4.448s.96-.768 1.728.832c0 0-.704-.544-1.344.032L1.44 6.208l-.704-.736zM8.384 12.64l4.608-4.448s.96-.768 1.728.832c0 0-.704-.544-1.344.032l-4.288 4.32-.704-.736z" transform="translate(3.84 4.84) translate(18.56 22.4)"/>
        </g>
        <path fill="#3D3D3B" stroke="#1E1E1C" stroke-width=".949" d="M28.288 45.376l-16.64-16.672a.715.715 0 010-1.024l3.552-3.552a.715.715 0 011.024 0L32.864 40.8a.715.715 0 010 1.024l-3.552 3.552c-.288.288-.768.288-1.024 0z" transform="translate(3.84 4.84)"/>
        <g stroke="#1E1E1C" stroke-width=".949">
            <path fill="#585857" d="M19.648 27.104s6.688-4.224 7.488-6.592c.608-1.888-1.664-7.712-1.664-7.712l7.776-8.256-4.48-4.32-7.904 8.16s-6.048-2.496-7.808-1.856c-2.24.8-6.624 6.752-6.624 6.752l13.216 13.824z" transform="translate(3.84 4.84) translate(23.04)"/>
            <path fill="#3D3D3B" d="M5.184 11.008l16.192 17.12a.715.715 0 01-.032 1.024l-3.648 3.456a.715.715 0 01-1.024-.032L.448 15.456a.715.715 0 01.032-1.024l3.648-3.456c.288-.288.768-.256 1.056.032z" transform="translate(3.84 4.84) translate(23.04)"/>
        </g>
        <path fill="#3D3D3B" stroke="#1E1E1C" stroke-width=".949" d="M7.808 43.872s.992 3.296 4.608 4.8l-8.288 7.424-4.096-5.024 7.776-7.2zM43.904 8.384s3.136 1.344 4.608 4.416l7.776-8.256-4.48-4.32-7.904 8.16z" transform="translate(3.84 4.84)"/>
        <path fill="#6A6A69" d="M12.768 31.168S6.976 35.2 6.976 37.024c0 1.824 1.504 6.496 1.504 6.496s1.408-5.216 7.136-9.312l-2.848-3.04zM31.168 12.608s4.096-4.928 5.504-5.152c1.408-.224 6.56 1.248 8.032 2.208 0 0-5.76-.224-10.08 6.464l-3.456-3.52z" transform="translate(3.84 4.84)"/>
        <path fill="#4B494A" d="M8.928 47.296L2.4 53.184.8 51.232l6.688-6.24c-.032 0 .512 1.216 1.44 2.304zM46.56 9.312l6.592-6.72-1.28-1.28-6.816 6.976s1.216.256 1.504 1.024zM16.704 32.544L20.224 29.312 15.808 25.088 12.48 28.32zM29.472 20.704L33.248 17.376 27.68 11.776 24.352 15.008z" transform="translate(3.84 4.84)"/>
    </g>
</svg>
