<?xml version="1.0" encoding="UTF-8" standalone="no"?>
<!-- Created with Inkscape (http://www.inkscape.org/) -->

<svg
   width="137.22504mm"
   height="114.41253mm"
   viewBox="0 0 137.22504 114.41253"
   version="1.1"
   id="svg5"
   inkscape:version="1.1.1 (3bf5ae0d25, 2021-09-20)"
   sodipodi:docname="Logo_svg.svg"
   xmlns:inkscape="http://www.inkscape.org/namespaces/inkscape"
   xmlns:sodipodi="http://sodipodi.sourceforge.net/DTD/sodipodi-0.dtd"
   xmlns="http://www.w3.org/2000/svg"
   xmlns:svg="http://www.w3.org/2000/svg">
  <sodipodi:namedview
     id="namedview7"
     pagecolor="#ffffff"
     bordercolor="#666666"
     borderopacity="1.0"
     inkscape:pageshadow="2"
     inkscape:pageopacity="0.0"
     inkscape:pagecheckerboard="0"
     inkscape:document-units="mm"
     showgrid="false"
     fit-margin-top="0"
     fit-margin-left="0"
     fit-margin-right="0"
     fit-margin-bottom="0"
     inkscape:zoom="0.36168631"
     inkscape:cx="897.1863"
     inkscape:cy="266.80579"
     inkscape:window-width="1920"
     inkscape:window-height="1001"
     inkscape:window-x="-9"
     inkscape:window-y="-9"
     inkscape:window-maximized="1"
     inkscape:current-layer="layer1" />
  <defs
     id="defs2">
    <clipPath
       clipPathUnits="userSpaceOnUse"
       id="clipPath397">
      <rect
         style="fill:#ffff00;stroke-width:0.380598;stroke-linejoin:bevel"
         id="rect399"
         width="149.78017"
         height="102.23091"
         x="-165.32512"
         y="84.674263" />
    </clipPath>
    <clipPath
       clipPathUnits="userSpaceOnUse"
       id="clipPath401">
      <rect
         style="fill:#ffff00;stroke-width:0.380598;stroke-linejoin:bevel"
         id="rect403"
         width="149.78017"
         height="102.23091"
         x="-165.32512"
         y="84.674263" />
    </clipPath>
    <clipPath
       clipPathUnits="userSpaceOnUse"
       id="clipPath405">
      <rect
         style="fill:#ffff00;stroke-width:0.380598;stroke-linejoin:bevel"
         id="rect407"
         width="149.78017"
         height="102.23091"
         x="-165.32512"
         y="84.674263" />
    </clipPath>
    <clipPath
       clipPathUnits="userSpaceOnUse"
       id="clipPath409">
      <rect
         style="fill:#ffff00;stroke-width:0.380598;stroke-linejoin:bevel"
         id="rect411"
         width="149.78017"
         height="102.23091"
         x="-165.32512"
         y="84.674263" />
    </clipPath>
  </defs>
  <g
     inkscape:label="Capa 1"
     inkscape:groupmode="layer"
     id="layer1"
     transform="translate(-36.207153,-33.493416)">
    <g
       id="g417"
       transform="matrix(1.3634062,0,0,1.3634062,232.19476,-106.92173)">
      <path
         style="fill:#d2dce0;stroke-width:0.168266"
         d="m -70.477134,216.01511 c -0.22408,-1.12038 -0.14035,-1.42571 0.48299,-1.7614 l 0.58893,-0.31717 -0.006,-5.30416 -0.006,-5.30417 -0.54038,-0.34309 c -0.4972,-0.31567 -0.53981,-0.41304 -0.53327,-1.21863 0.004,-0.48154 0.0922,-0.96064 0.19624,-1.06466 0.10495,-0.10495 1.01925,-0.22848 2.05414,-0.27753 l 1.86501,-0.0884 v 0.50984 0.50984 l 0.96752,-0.39788 c 1.44437,-0.59398 3.2271,-0.56788 4.43854,0.065 0.75802,0.39599 0.98178,0.62815 1.40741,1.46015 0.49185,0.96147 0.50608,1.05598 0.50608,3.3602 0,2.33989 -0.007,2.38561 -0.55273,3.4942 -0.96225,1.95551 -2.50164,2.82492 -5.00184,2.82492 h -1.42845 v 0.89883 c 0,0.89827 3.3e-4,0.89895 0.6531,1.0945 0.8763,0.26255 0.99972,0.46689 0.87945,1.45612 l -0.10229,0.84133 -2.88078,0.0459 -2.88077,0.046 z m 6.81609,-6.47304 c 0.34443,-0.17812 0.64972,-0.56687 0.93569,-1.1915 0.38683,-0.84496 0.41864,-1.08419 0.35886,-2.69911 -0.0634,-1.71311 -0.0819,-1.78599 -0.55619,-2.19397 -0.42496,-0.36552 -0.60441,-0.41018 -1.34118,-0.33377 -0.46782,0.0485 -1.05881,0.18332 -1.31331,0.29956 l -0.46273,0.21134 v 2.98775 c 0,2.23276 0.0532,3.0092 0.21033,3.07262 0.45624,0.1841 1.68427,0.0975 2.16853,-0.15292 z m 8.66434,6.47304 c -0.22407,-1.12038 -0.14035,-1.42571 0.48299,-1.7614 l 0.58893,-0.31717 -0.006,-5.30416 -0.006,-5.30417 -0.54039,-0.34309 c -0.4972,-0.31567 -0.53981,-0.41304 -0.53326,-1.21863 0.004,-0.48154 0.0922,-0.96064 0.19624,-1.06466 0.10495,-0.10495 1.01924,-0.22848 2.05414,-0.27753 l 1.865,-0.0884 v 0.50984 0.50984 l 0.96753,-0.39788 c 1.44437,-0.59398 3.22709,-0.56788 4.43854,0.065 0.75801,0.39599 0.98178,0.62815 1.4074,1.46015 0.49185,0.96147 0.50609,1.05598 0.50609,3.3602 0,2.33989 -0.007,2.38561 -0.55274,3.4942 -0.96224,1.95551 -2.50164,2.82492 -5.00183,2.82492 h -1.42846 v 0.89883 c 0,0.89827 3.4e-4,0.89895 0.65311,1.0945 0.8763,0.26255 0.99972,0.46689 0.87944,1.45612 l -0.10229,0.84133 -2.88077,0.0459 -2.88077,0.046 z m 6.8161,-6.47304 c 0.34443,-0.17812 0.64971,-0.56687 0.93568,-1.1915 0.38683,-0.84496 0.41864,-1.08419 0.35886,-2.69911 -0.0634,-1.71311 -0.0819,-1.78599 -0.55619,-2.19397 -0.42495,-0.36552 -0.60441,-0.41018 -1.34117,-0.33377 -0.46782,0.0485 -1.05881,0.18332 -1.31332,0.29956 l -0.46273,0.21134 v 2.98775 c 0,2.23276 0.0531,3.0092 0.21034,3.07262 0.45623,0.1841 1.68427,0.0975 2.16853,-0.15292 z m -68.472966,2.26198 c -2.34655,-1.16152 -2.4326,-4.5368 -0.14631,-5.73919 0.58371,-0.30698 1.04899,-0.37969 2.78157,-0.43469 l 2.08061,-0.0661 -0.0776,-0.93613 c -0.063,-0.76016 -0.16505,-1.01133 -0.54266,-1.33614 -0.39141,-0.33668 -0.61498,-0.3921 -1.41241,-0.35008 -0.79817,0.042 -0.9553,0.10291 -0.99764,0.38644 -0.16883,1.1306 -0.12242,1.09372 -1.37655,1.09372 -0.70473,0 -1.21256,-0.0774 -1.28584,-0.19596 -0.0666,-0.10778 -0.15591,-0.73815 -0.19843,-1.40083 l -0.0773,-1.20487 0.8195,-0.34934 c 1.35695,-0.57844 2.08817,-0.71718 3.78506,-0.71817 2.46127,-10e-4 3.53995,0.49481 4.20423,1.93412 0.26519,0.5746 0.31118,1.11797 0.31434,3.71423 l 0.004,3.04117 0.631,0.15588 0.631,0.15588 v 1.08833 1.08834 l -0.67307,0.20279 c -0.37018,0.11153 -1.14486,0.20861 -1.72151,0.21572 -1.00906,0.0125 -1.05261,-0.004 -1.15906,-0.4498 -0.17214,-0.72019 -0.2422,-0.76452 -0.63098,-0.39928 -0.98811,0.92828 -3.56455,1.19047 -4.95158,0.50391 z m 4.13029,-2.3323 c 0.49995,-0.30483 0.54687,-0.40582 0.54687,-1.17723 v -0.8438 h -1.14042 c -1.46085,0 -1.88836,0.26666 -1.88836,1.17785 0,0.48506 0.0966,0.72164 0.37397,0.91592 0.51358,0.35973 1.45173,0.32736 2.10794,-0.0727 z m -31.1676,1.56724 c -0.10936,-0.8753 -0.0864,-0.98018 0.27508,-1.25825 0.21691,-0.16685 0.48903,-0.30504 0.60471,-0.3071 0.16366,-0.003 0.21034,-1.15889 0.21034,-5.20863 0,-4.93463 -0.0163,-5.21008 -0.31434,-5.30466 -0.69244,-0.21977 -0.89911,-0.67322 -0.77169,-1.6931 l 0.11945,-0.95599 4.05893,0.0734 c 3.52406,0.0637 4.1982,0.11931 5.11575,0.42158 1.93843,0.63859 2.77237,1.61892 3.03964,3.57325 0.54486,3.9841 -1.78832,6.21897 -6.50132,6.22737 l -1.39527,0.002 0.0491,1.286 0.0491,1.28599 0.72046,0.21222 c 1.02391,0.30159 1.2146,0.51278 1.2146,1.34514 0,1.3158 0.15849,1.25515 -3.2798,1.25515 h -3.07552 z m 7.7771,-7.34816 c 0.824,-0.43142 1.09401,-0.96826 1.10558,-2.19814 0.0176,-1.87198 -0.71306,-2.45526 -3.07571,-2.45526 h -1.35153 v 2.54509 2.54508 l 1.38819,-0.0756 c 0.84457,-0.046 1.60172,-0.18744 1.93347,-0.36113 z m 8.3908,8.0369 c -0.0562,-0.14639 -0.10213,-0.58879 -0.10213,-0.9831 0,-0.64677 0.0576,-0.74798 0.58893,-1.0341 l 0.58893,-0.31716 v -5.43453 -5.43453 l -0.38552,-0.14657 c -0.66309,-0.25211 -0.84196,-0.61567 -0.75388,-1.53233 0.0446,-0.46428 0.13218,-0.89523 0.19461,-0.95765 0.0624,-0.0624 1.01986,-0.14581 2.12766,-0.1853 l 2.01417,-0.0718 10e-4,6.87757 0.001,6.87756 0.68768,0.39278 c 0.55732,0.31832 0.66916,0.46187 0.58993,0.7572 -0.0538,0.20042 -0.0988,0.6105 -0.10005,0.91127 l -0.002,0.54687 h -2.67424 c -2.28334,0 -2.68918,-0.0389 -2.77638,-0.26616 z m 23.62332,-0.13347 c 0,-0.2198 -0.0468,-0.63355 -0.10396,-0.91944 -0.093,-0.465 -0.0398,-0.55768 0.50479,-0.87898 l 0.60876,-0.35918 v -3.07967 -3.07967 l -0.595,-0.35106 c -0.59041,-0.34835 -0.59415,-0.3579 -0.48389,-1.23655 0.0611,-0.48702 0.17108,-0.95108 0.24438,-1.03125 0.0733,-0.0802 0.97252,-0.18554 1.99828,-0.23416 l 1.865006,-0.0884 v 0.52863 c 0,0.29074 0.0236,0.52862 0.0525,0.52862 0.0289,0 0.38856,-0.16572 0.79926,-0.36826 0.56571,-0.27899 1.13425,-0.38371 2.34526,-0.43198 1.4152,-0.0564 1.68535,-0.019 2.35572,0.3262 1.40744,0.72475 1.84141,2.20562 1.84758,6.30465 l 0.003,2.2129 0.60875,0.35918 c 0.54457,0.3213 0.5978,0.41398 0.5048,0.87898 -0.0572,0.28589 -0.10396,0.69964 -0.10396,0.91944 v 0.39963 h -2.68462 -2.68463 l -0.10635,-0.56689 c -0.1719,-0.9163 -0.0345,-1.33721 0.55547,-1.70205 l 0.5485,-0.33918 -0.0437,-2.83368 c -0.0431,-2.792 -0.0499,-2.83865 -0.46235,-3.1723 -0.33851,-0.27383 -0.60026,-0.3255 -1.36764,-0.26999 -0.52195,0.0378 -1.14755,0.19874 -1.39021,0.35774 l -0.44121,0.28909 v 2.84002 2.84001 l 0.58893,0.34748 c 0.48415,0.28566 0.58852,0.44577 0.58663,0.90001 -0.006,1.36309 0.11156,1.30974 -2.877846,1.30974 h -2.67262 z m 15.557126,-0.52711 c -0.13283,-1.06308 -1.3e-4,-1.3132 0.86215,-1.625 l 0.56928,-0.20585 2.16254,-6.48763 2.16254,-6.48762 h 1.5845 1.5845 l 2.24826,6.50764 c 2.10953,6.10608 2.27791,6.51993 2.72874,6.70666 0.76444,0.31664 0.88017,0.56179 0.75147,1.5918 l -0.11578,0.92674 h -2.66881 c -2.97263,0 -2.78994,0.0794 -2.89112,-1.25604 -0.0442,-0.58339 0.0142,-0.71078 0.46583,-1.01509 l 0.51638,-0.34798 -0.27937,-0.83584 -0.27936,-0.83583 -2.1978,-0.0468 -2.1978,-0.0468 -0.27575,0.80402 c -0.26039,0.75925 -0.25902,0.81533 0.0246,1.00703 0.88695,0.59943 0.8841,0.59354 0.77665,1.60585 l -0.10269,0.96753 h -2.65661 -2.6566 z m 8.67311,-5.70603 c 0,-0.0387 -0.26772,-0.92432 -0.59495,-1.96798 -0.32722,-1.04367 -0.64088,-2.33707 -0.69703,-2.87424 -0.11958,-1.14405 -0.39067,-1.30941 -0.39067,-0.2383 0,0.65742 -0.27398,1.76024 -1.0811,4.35167 l -0.24893,0.79926 h 1.50634 c 0.82849,0 1.50634,-0.0317 1.50634,-0.0704 z m -14.22317,-21.94996 c -0.0899,-0.0843 -3.94951,-2.33189 -8.576816,-4.99474 -4.6273,-2.66285 -12.23711,-7.04861 -16.91069,-9.74612 -4.67358,-2.69752 -9.62208,-5.54368 -10.99668,-6.3248 l -2.49927,-1.42023 0.10083,-4.1225 c 0.0555,-2.26738 0.10235,-5.22044 0.10421,-6.56236 l 0.003,-2.43985 3.78614,-2.18746 c 3.19174,-1.84403 3.74339,-2.21873 3.51386,-2.38669 -0.14975,-0.10958 -1.89573,-1.13179 -3.87995,-2.27158 l -3.60768,-2.07235 0.11268,-6.56236 c 0.062,-3.6093 0.12191,-6.57092 0.13317,-6.58139 0.0113,-0.0105 5.24512,-3.04866 11.6308,-6.75156 6.38568,-3.70289 15.09343,-8.75894 19.35055,-11.23566 4.257116,-2.47672 7.825696,-4.50542 7.930176,-4.50821 0.10447,-0.003 6.27562,3.50388 13.71365,7.79262 7.43802,4.28874 16.21172,9.34731 19.4971,11.24127 3.28539,1.89395 5.99805,3.46388 6.02815,3.48873 0.0301,0.0249 1.4e-4,2.98782 -0.0666,6.58438 l -0.12128,6.53921 -3.74733,2.18082 c -2.06103,1.19946 -3.71924,2.22629 -3.6849,2.28185 0.0343,0.0556 1.77328,1.07917 3.86432,2.2747 l 3.80189,2.17368 -0.11408,6.56236 c -0.0627,3.60929 -0.12329,6.57122 -0.13456,6.58206 -0.0112,0.0108 -2.6328,1.53392 -5.82564,3.38462 -3.19283,1.85071 -11.90057,6.90508 -19.35053,11.23195 -7.44996,4.32687 -13.62323,7.89758 -13.71838,7.93492 -0.0952,0.0373 -0.24659,-10e-4 -0.33653,-0.0853 z m 14.55971,-21.2168 c 7.17232,-4.17599 13.04058,-7.67465 13.04058,-7.77481 0,-0.27277 -7.18892,-4.37115 -7.52059,-4.28746 -0.15685,0.0396 -4.51072,2.5296 -9.67528,5.5334 -5.16455,3.0038 -9.55854,5.55022 -9.76441,5.65871 -0.38402,0.20238 -2.70713,-1.08541 -17.017446,-9.43343 l -3.42572,-1.99841 -3.5573,2.04942 c -1.95652,1.12717 -3.64628,2.13305 -3.75503,2.23527 -0.14718,0.13835 1.18442,0.98165 5.20889,3.29878 2.97365,1.7121 9.23163,5.3235 13.90664,8.02534 l 8.500006,4.91242 0.50954,-0.31326 c 0.28024,-0.17229 6.37779,-3.72998 13.55012,-7.90597 z m -9.54073,-16.48886 c 2.11001,-1.22931 3.8137,-2.2571 3.78598,-2.28398 -0.19381,-0.18788 -8.61068,-4.9597 -8.74827,-4.9597 -0.21834,0 -8.415446,4.73318 -8.335516,4.81311 0.0323,0.0323 2.01981,1.19451 4.416786,2.58279 3.93735,2.28042 4.39129,2.50283 4.70139,2.30352 0.18878,-0.12135 2.06962,-1.22643 4.17963,-2.45574 z m -14.941916,-14.64762 c 4.997486,-2.88856 9.319666,-5.39357 9.604856,-5.56669 l 0.51852,-0.31477 10.08184,5.81581 c 7.45276,4.29919 10.14776,5.7757 10.33462,5.66202 0.13902,-0.0846 1.78979,-1.04537 3.66839,-2.1351 1.87859,-1.08972 3.39298,-2.04844 3.36531,-2.13047 -0.0601,-0.1781 -27.35511,-15.96966 -27.60286,-15.96966 -0.0943,0 -3.47427,1.91985 -7.510956,4.26633 -4.03668,2.34648 -10.06533,5.8409 -13.39699,7.76537 -3.33165,1.92447 -6.14643,3.58237 -6.25505,3.68422 -0.14676,0.13762 0.78246,0.75057 3.61771,2.38639 3.36548,1.94174 3.85487,2.17688 4.15173,1.99484 0.1851,-0.11351 4.42539,-2.56974 9.42288,-5.45829 z"
         id="path173"
         clip-path="url(#clipPath409)" />
      <path
         style="fill:#99aeb8;stroke-width:0.168266"
         d="m -70.070694,215.6219 c -0.17595,-1.0645 -0.12891,-1.21894 0.48093,-1.57875 l 0.58893,-0.34748 v -5.35126 -5.35125 l -0.60974,-0.35975 c -0.60729,-0.35832 -0.60926,-0.36325 -0.49384,-1.23339 0.0637,-0.4805 0.20319,-0.92759 0.30989,-0.99353 0.28073,-0.1735 2.0974,-0.34317 2.98114,-0.27843 0.68476,0.0502 0.76229,0.0997 0.81044,0.5182 0.0293,0.2545 0.0891,0.46273 0.1329,0.46273 0.0438,0 0.39845,-0.16341 0.78809,-0.36313 0.86951,-0.4457 2.75159,-0.59943 3.82133,-0.31213 0.92208,0.24765 2.0074,1.30801 2.33046,2.27685 0.12288,0.3685 0.26399,1.47717 0.31359,2.46371 0.0762,1.51524 0.0352,1.9746 -0.26375,2.95894 -0.42782,1.40852 -1.35179,2.54195 -2.61194,3.20405 -0.77216,0.40571 -1.04196,0.45315 -2.58662,0.45477 l -1.72453,0.002 -1.7e-4,0.87871 -1.7e-4,0.87872 0.84133,0.36193 c 0.78938,0.33958 0.84119,0.39961 0.83903,0.9722 -0.005,1.43521 0.14437,1.36747 -3.02413,1.36747 h -2.81888 z m 7.30961,-6.73342 c 0.61932,-0.69313 0.86687,-1.65901 0.85673,-3.34268 -0.01,-1.65605 -0.3188,-2.52543 -0.95371,-2.68478 -0.58798,-0.14758 -1.75554,-0.006 -2.36753,0.28712 l -0.49406,0.23662 -0.0462,2.93009 c -0.0351,2.22762 0.005,2.96507 0.16826,3.07598 0.11794,0.0802 0.69767,0.11948 1.28829,0.0872 0.9569,-0.0523 1.12551,-0.11649 1.54819,-0.58956 z m 8.17082,6.73342 c -0.17595,-1.0645 -0.1289,-1.21894 0.48093,-1.57875 l 0.58893,-0.34748 v -5.35126 -5.35125 l -0.60973,-0.35975 c -0.60729,-0.35832 -0.60927,-0.36325 -0.49384,-1.23339 0.0637,-0.4805 0.20319,-0.92759 0.30988,-0.99353 0.28073,-0.1735 2.0974,-0.34317 2.98114,-0.27843 0.68477,0.0502 0.76229,0.0997 0.81044,0.5182 0.0293,0.2545 0.0891,0.46273 0.13291,0.46273 0.0438,0 0.39845,-0.16341 0.78808,-0.36313 0.86952,-0.4457 2.7516,-0.59943 3.82134,-0.31213 0.92208,0.24765 2.0074,1.30801 2.33046,2.27685 0.12287,0.3685 0.26399,1.47717 0.31359,2.46371 0.0762,1.51524 0.0352,1.9746 -0.26375,2.95894 -0.42782,1.40852 -1.35179,2.54195 -2.61194,3.20405 -0.77217,0.40571 -1.04197,0.45315 -2.58662,0.45477 l -1.72454,0.002 -1.6e-4,0.87871 -1.7e-4,0.87872 0.84133,0.36193 c 0.78937,0.33958 0.84118,0.39961 0.83903,0.9722 -0.005,1.43521 0.14437,1.36747 -3.02414,1.36747 h -2.81887 z m 7.30962,-6.73342 c 0.61931,-0.69313 0.86687,-1.65901 0.85673,-3.34268 -0.01,-1.65605 -0.3188,-2.52543 -0.95372,-2.68478 -0.58798,-0.14758 -1.75553,-0.006 -2.36752,0.28712 l -0.49407,0.23662 -0.0462,2.93009 c -0.0351,2.22762 0.005,2.96507 0.16827,3.07598 0.11794,0.0802 0.69767,0.11948 1.28828,0.0872 0.95691,-0.0523 1.12551,-0.11649 1.5482,-0.58956 z m -68.666296,2.72125 c -0.69949,-0.30299 -1.45256,-0.98613 -1.78181,-1.61637 -0.30853,-0.59057 -0.30483,-2.20829 0.006,-2.81018 0.69484,-1.34367 1.99761,-1.86755 4.64418,-1.86755 h 1.50611 v -0.85427 c 0,-0.72316 -0.0768,-0.93107 -0.50038,-1.35465 -0.45616,-0.45615 -0.58615,-0.49591 -1.47069,-0.44979 -0.82083,0.0428 -0.97805,0.10244 -1.02056,0.38713 -0.16886,1.13077 -0.12216,1.09372 -1.37857,1.09372 h -1.16675 l -0.17523,-0.63099 c -0.0964,-0.34705 -0.17566,-0.98523 -0.17618,-1.41817 l -9.4e-4,-0.78717 0.95138,-0.35596 c 1.50961,-0.56481 2.51878,-0.72105 4.16239,-0.6444 1.02993,0.048 1.72592,0.17112 2.12165,0.37524 1.59133,0.82081 1.85093,1.59034 1.85093,5.48684 v 2.80563 l 0.54686,0.1562 c 0.53361,0.15241 0.54808,0.18157 0.59699,1.2033 0.0483,1.00909 0.033,1.05392 -0.42067,1.2347 -0.25893,0.10317 -1.01452,0.22588 -1.67908,0.27268 l -1.20829,0.0851 -0.11449,-0.61032 c -0.063,-0.33567 -0.14898,-0.61031 -0.19113,-0.61031 -0.0421,0 -0.31767,0.17884 -0.61227,0.39743 -0.2946,0.21858 -0.79302,0.4836 -1.10761,0.58893 -0.80399,0.26919 -2.68198,0.22657 -3.38227,-0.0768 z m 3.79138,-2.33127 c 0.5665,-0.2367 0.58353,-0.27107 0.58353,-1.17786 v -0.93404 l -1.21993,0.003 c -1.32182,0.003 -1.491,0.0614 -1.78366,0.61736 -0.27435,0.5212 -0.24243,0.78681 0.15528,1.29243 0.40881,0.51971 1.30874,0.599 2.26478,0.19954 z m -31.05041,1.9475 c 0,-0.26607 -0.0467,-0.71738 -0.10383,-1.00292 -0.0942,-0.47108 -0.0475,-0.54604 0.5048,-0.80939 l 0.60863,-0.29024 -0.006,-5.143 -0.007,-5.143 -0.54039,-0.34418 c -0.51494,-0.32798 -0.53776,-0.3874 -0.48479,-1.262 0.0306,-0.50479 0.11983,-0.98435 0.19834,-1.06567 0.19637,-0.20339 7.63561,-0.004 8.60371,0.23046 1.32986,0.32224 2.5092,1.14879 2.99688,2.10037 0.37949,0.74048 0.42887,1.04077 0.42887,2.60811 0,1.50679 -0.0557,1.87537 -0.37279,2.46833 -0.90042,1.6836 -2.7175,2.54238 -5.72684,2.70661 l -1.72472,0.0941 v 1.32196 c 0,1.14542 0.0393,1.32245 0.29447,1.32565 0.16195,0.002 0.61627,0.14977 1.00959,0.32831 0.76511,0.34729 0.85395,0.61448 0.60996,1.83442 l -0.10516,0.52583 h -3.09184 -3.09188 v -0.48377 z m 7.80068,-7.81439 c 0.9886,-0.64776 1.36994,-2.09757 0.88541,-3.36629 -0.36119,-0.94576 -1.05013,-1.28012 -2.90778,-1.41122 l -1.4034,-0.099 v 2.6537 2.65369 l 1.49305,-0.0714 c 1.02791,-0.0491 1.63003,-0.16113 1.93272,-0.35945 z m 8.28972,7.77233 c -0.21028,-1.05143 -0.13314,-1.31994 0.48377,-1.68392 l 0.58893,-0.34748 v -5.43539 -5.43539 l -0.61147,-0.36077 c -0.60472,-0.35679 -0.61034,-0.3703 -0.50927,-1.22367 0.0562,-0.47458 0.17454,-0.93523 0.26296,-1.02365 0.0884,-0.0884 1.03693,-0.19943 2.1078,-0.24669 l 1.94702,-0.0859 v 6.90574 6.90574 l 0.58893,0.34748 c 0.5151,0.30391 0.58893,0.43084 0.58893,1.01245 0,1.23404 0.0851,1.1973 -2.77335,1.1973 h -2.56908 z m 23.73023,0.39933 c -0.0741,-0.11992 -0.16118,-1.26194 -0.12625,-1.65586 0.009,-0.10111 0.28133,-0.32656 0.60524,-0.501 l 0.58893,-0.31716 v -3.06331 c 0,-2.84344 -0.0226,-3.07047 -0.31434,-3.16307 -0.61065,-0.19382 -0.93643,-0.74144 -0.88594,-1.48925 0.0262,-0.38789 0.14282,-0.80343 0.25919,-0.92342 0.13292,-0.13705 0.87895,-0.25596 2.00659,-0.31981 l 1.795006,-0.10166 v 0.58856 0.58855 l 0.85596,-0.42361 c 0.61887,-0.30628 1.21863,-0.4446 2.16536,-0.49941 1.52907,-0.0885 2.31585,0.1224 3.13299,0.83986 0.88778,0.77948 1.08111,1.69744 1.08111,5.13316 0,2.9065 0.002,2.91888 0.39455,3.06828 0.73283,0.27862 0.89489,0.57733 0.79327,1.46217 l -0.0941,0.81934 -2.62749,0.0462 -2.6275,0.0462 -0.10497,-0.63515 c -0.17669,-1.06912 -0.13006,-1.22282 0.48026,-1.58291 l 0.58893,-0.34748 v -2.76741 c 0,-2.71388 -0.008,-2.7754 -0.41302,-3.18042 -0.32863,-0.32863 -0.58532,-0.41302 -1.25628,-0.41302 -0.4638,0 -1.11086,0.1276 -1.43791,0.28356 l -0.59464,0.28357 v 2.89686 2.89686 l 0.58893,0.34748 c 0.60984,0.35981 0.65688,0.51425 0.48093,1.57875 l -0.1043,0.631 H -100.731 c -1.41689,0 -2.61135,-0.0569 -2.65435,-0.1265 z m 15.471636,-0.83879 c -0.12362,-1.05184 -0.0107,-1.24234 0.94177,-1.5887 0.42297,-0.15381 0.60105,-0.60679 2.60648,-6.6299 l 2.15249,-6.46482 h 1.6007 1.60071 l 1.75027,5.09004 c 2.91282,8.47092 2.64544,7.82782 3.41856,8.22224 0.64275,0.32791 0.67002,0.37371 0.57279,0.96177 -0.0562,0.3396 -0.10294,0.78783 -0.10396,0.99606 -0.002,0.37664 -0.0156,0.3786 -2.67307,0.3786 h -2.67121 l -0.10517,-0.52583 c -0.22036,-1.10182 -0.13323,-1.49309 0.39989,-1.79565 0.27779,-0.15765 0.47249,-0.37341 0.43267,-0.47946 -0.0398,-0.10605 -0.1655,-0.50357 -0.27929,-0.88339 l -0.20691,-0.69058 h -2.24911 c -2.49563,0 -2.36923,-0.0605 -2.63644,1.26199 -0.0883,0.43721 -0.0294,0.55025 0.44045,0.84425 0.48334,0.30247 0.5369,0.41247 0.49163,1.0096 -0.10131,1.33631 0.0703,1.25907 -2.79619,1.25907 h -2.57361 z m 8.64866,-5.69488 c 0,-0.0538 -0.26577,-0.97454 -0.59062,-2.04609 -0.32484,-1.07156 -0.63814,-2.35263 -0.69623,-2.84684 -0.0581,-0.49421 -0.16011,-0.89856 -0.22673,-0.89856 -0.0666,0 -0.16719,0.43539 -0.2235,0.96753 -0.0849,0.8022 -0.52717,2.4881 -1.19191,4.54317 -0.12091,0.37379 -0.10308,0.3786 1.40326,0.3786 0.83916,0 1.52573,-0.044 1.52573,-0.0978 z M -100.9713,178.73925 c -4.1183,-2.39116 -12.86391,-7.44915 -19.43468,-11.23998 l -11.94686,-6.89243 0.0638,-6.46109 c 0.0351,-3.5536 0.0913,-6.50964 0.12482,-6.56899 0.0335,-0.0593 1.72746,-1.07221 3.76424,-2.25081 2.03677,-1.17861 3.70151,-2.19013 3.69943,-2.24782 -0.002,-0.0577 -1.72471,-1.09682 -3.82805,-2.30916 l -3.82425,-2.20425 0.0613,-6.46142 c 0.0429,-4.52609 0.11854,-6.51753 0.2524,-6.64871 0.1051,-0.103 3.18202,-1.91531 6.83759,-4.02734 3.65557,-2.11203 8.88021,-5.13739 11.61032,-6.72301 2.73011,-1.58563 8.33241,-4.8394 12.44956,-7.2306 4.117146,-2.3912 7.602936,-4.37829 7.746196,-4.41576 0.21915,-0.0573 12.90745,7.18266 34.5747,19.72837 l 4.71143,2.72801 -0.0636,6.45789 c -0.035,3.55185 -0.0886,6.50234 -0.11917,6.55666 -0.0306,0.0543 -1.72456,1.06811 -3.76444,2.25288 -2.03988,1.18477 -3.70693,2.2004 -3.70457,2.25696 0.002,0.0566 1.72499,1.09703 3.82805,2.31215 l 3.82373,2.20931 -0.0611,6.45637 c -0.0428,4.52846 -0.1182,6.51197 -0.2524,6.64257 -0.10523,0.10241 -2.61436,1.58747 -5.57583,3.30015 -2.96148,1.71268 -11.55564,6.697 -19.09815,11.07628 -7.54251,4.37928 -13.86509,7.98235 -14.05018,8.00683 -0.19384,0.0256 -3.51133,-1.79884 -7.824336,-4.30306 z m 15.337246,-12.8839 c 3.91942,-2.28146 10.02076,-5.82665 13.55853,-7.87822 3.53778,-2.05156 6.43406,-3.77652 6.43616,-3.83324 0.005,-0.13052 -7.42379,-4.4125 -7.65174,-4.41057 -0.0928,8.4e-4 -4.5605,2.56044 -9.92818,5.68814 -5.36767,3.1277 -9.83738,5.6889 -9.93268,5.69156 -0.16463,0.005 -6.27326,-3.48563 -15.764596,-9.00729 -2.38015,-1.38467 -4.39389,-2.49155 -4.47497,-2.45973 -0.41668,0.16352 -7.42863,4.27864 -7.43161,4.36142 -0.002,0.0533 3.00302,1.83271 6.67767,3.95424 3.67464,2.12152 9.90257,5.72707 13.83984,8.01232 3.937276,2.28525 7.245686,4.12676 7.352026,4.09224 0.10634,-0.0345 3.40014,-1.92941 7.31955,-4.21087 z m -3.23956,-20.14985 c 2.25778,-1.31766 4.09032,-2.47146 4.07229,-2.56401 -0.018,-0.0925 -1.97178,-1.28237 -4.34168,-2.64405 l -4.3089,-2.47579 -0.68885,0.41383 c -0.37887,0.22761 -2.29785,1.33962 -4.26441,2.47114 -3.320476,1.91054 -3.548536,2.07196 -3.197036,2.26281 0.20817,0.11303 2.195766,1.26484 4.416876,2.55957 2.2211,1.29473 4.07623,2.35814 4.1225,2.36315 0.0463,0.005 1.93142,-1.06899 4.18921,-2.38665 z m -14.481306,-14.9272 c 5.306046,-3.07781 9.775736,-5.62958 9.932626,-5.67061 0.16649,-0.0435 4.31161,2.24958 9.95557,5.50751 5.31868,3.07016 9.83152,5.65707 10.02856,5.74869 0.30242,0.14062 0.9381,-0.16892 4.08044,-1.98699 2.04721,-1.18447 3.72157,-2.19573 3.7208,-2.24726 -8.4e-4,-0.0515 -6.25876,-3.70694 -13.90664,-8.12315 l -13.90525,-8.02948 -0.69039,0.41476 c -0.37972,0.22812 -6.538066,3.80352 -13.685206,7.94534 -7.14714,4.14182 -12.97754,7.58653 -12.95645,7.6549 0.0495,0.16052 7.56951,4.49357 7.68857,4.4302 0.0495,-0.0263 4.43132,-2.56611 9.73737,-5.64391 z"
         id="path171"
         clip-path="url(#clipPath405)" />
      <path
         style="fill:#587a8a;stroke-width:0.168266"
         d="m -70.058734,215.83158 c 0,-0.2198 -0.0468,-0.63355 -0.10396,-0.91944 -0.093,-0.465 -0.0398,-0.55768 0.5048,-0.87898 l 0.60876,-0.35918 v -5.45201 c 0,-4.24744 -0.0465,-5.45284 -0.21034,-5.45575 -0.11568,-0.002 -0.37961,-0.13457 -0.58651,-0.29447 -0.33324,-0.25753 -0.36423,-0.39119 -0.27142,-1.17081 0.0981,-0.82377 0.13829,-0.88589 0.62858,-0.97068 0.87719,-0.1517 2.17587,-0.21136 2.75334,-0.12647 0.47617,0.07 0.54686,0.14498 0.54686,0.5801 0,0.27485 0.0568,0.47062 0.1262,0.43505 1.59909,-0.81954 1.84022,-0.88558 3.23911,-0.88719 1.21511,-0.001 1.54319,0.0616 2.18094,0.41902 1.30222,0.72973 1.79062,1.75904 1.97057,4.15298 0.24063,3.20116 -0.84342,5.4548 -3.13336,6.51398 -0.61282,0.28345 -1.09338,0.35421 -2.40634,0.35431 l -1.64059,1.3e-4 v 0.94089 0.94089 l 0.6531,0.19568 c 0.92876,0.27826 1.08428,0.53064 0.94611,1.53527 l -0.1164,0.84631 h -2.84472 -2.84473 z m 6.96503,-6.68343 c 0.24643,-0.19384 0.59639,-0.6432 0.77769,-0.99858 0.70943,-1.39061 0.57305,-4.57046 -0.21985,-5.12583 -0.47437,-0.33226 -1.78816,-0.32385 -2.63976,0.0169 l -0.67647,0.27067 v 2.98246 c 0,1.64036 0.0505,3.03295 0.11218,3.09465 0.0617,0.0617 0.58152,0.11217 1.15517,0.11217 0.80389,0 1.1457,-0.0808 1.49104,-0.35243 z m 8.51541,6.68343 c 0,-0.2198 -0.0468,-0.63355 -0.10396,-0.91944 -0.093,-0.465 -0.0398,-0.55768 0.50479,-0.87898 l 0.60876,-0.35918 v -5.45201 c 0,-4.24744 -0.0465,-5.45284 -0.21033,-5.45575 -0.11568,-0.002 -0.37962,-0.13457 -0.58652,-0.29447 -0.33324,-0.25753 -0.36422,-0.39119 -0.27142,-1.17081 0.0981,-0.82377 0.13829,-0.88589 0.62859,-0.97068 0.87719,-0.1517 2.17586,-0.21136 2.75333,-0.12647 0.47617,0.07 0.54687,0.14498 0.54687,0.5801 0,0.27485 0.0568,0.47062 0.1262,0.43505 1.59908,-0.81954 1.84021,-0.88558 3.23911,-0.88719 1.21511,-0.001 1.54318,0.0616 2.18094,0.41902 1.30222,0.72973 1.79062,1.75904 1.97057,4.15298 0.24063,3.20116 -0.84342,5.4548 -3.13337,6.51398 -0.61282,0.28345 -1.09338,0.35421 -2.40633,0.35431 l -1.64059,1.3e-4 v 0.94089 0.94089 l 0.6531,0.19568 c 0.92875,0.27826 1.08428,0.53064 0.94611,1.53527 l -0.1164,0.84631 h -2.84473 -2.84472 z m 6.96502,-6.68343 c 0.24643,-0.19384 0.59639,-0.6432 0.77769,-0.99858 0.70944,-1.39061 0.57305,-4.57046 -0.21984,-5.12583 -0.47437,-0.33226 -1.78817,-0.32385 -2.63976,0.0169 l -0.67647,0.27067 v 2.98246 c 0,1.64036 0.0505,3.03295 0.11218,3.09465 0.0617,0.0617 0.58152,0.11217 1.15516,0.11217 0.8039,0 1.14571,-0.0808 1.49104,-0.35243 z m -68.173506,2.48354 c -0.81063,-0.29399 -1.72532,-1.08632 -1.99262,-1.72608 -0.29942,-0.7166 -0.30142,-1.94266 -0.004,-2.63995 0.55421,-1.30069 1.65693,-1.79978 4.25974,-1.92797 l 1.90363,-0.0938 v -0.88181 c 0,-1.08302 -0.33379,-1.54973 -1.26199,-1.76451 -0.98131,-0.22707 -1.76621,-0.049 -1.76908,0.40141 -0.007,1.01807 -0.12556,1.11706 -1.34348,1.11706 h -1.13826 l -0.18824,-0.74757 c -0.10353,-0.41117 -0.18824,-1.01538 -0.18824,-1.34271 0,-0.52438 0.0796,-0.63573 0.66947,-0.93667 1.86892,-0.95345 5.14523,-1.10423 6.69566,-0.30815 0.56073,0.28792 0.91999,0.62954 1.21641,1.15672 0.39974,0.71091 0.42354,0.9047 0.47837,3.89522 l 0.0577,3.14709 0.58092,0.19172 0.58092,0.19172 -0.0497,1.03278 -0.0497,1.03278 -0.92546,0.21327 c -0.509,0.11729 -1.22632,0.1945 -1.59403,0.17158 -0.61377,-0.0383 -0.68272,-0.0922 -0.84132,-0.6584 l -0.17277,-0.61671 -0.46548,0.40068 c -0.92931,0.79992 -3.19237,1.15132 -4.45816,0.69226 z m 3.67001,-2.38783 c 0.4657,-0.24082 0.49644,-0.31897 0.49644,-1.26199 v -1.00527 h -0.93087 c -1.12634,0 -2.02457,0.34517 -2.18102,0.83811 -0.14594,0.4598 0.006,1.07961 0.34778,1.42171 0.3418,0.3418 1.61301,0.34598 2.26767,0.007 z m -31.03244,2.14971 c -0.0472,-0.16195 -0.10882,-0.59685 -0.13685,-0.96643 -0.0466,-0.61448 0.003,-0.70686 0.57935,-1.07985 l 0.6303,-0.40789 -5e-4,-5.06184 -5.1e-4,-5.06184 -0.63054,-0.33797 c -0.6151,-0.3297 -0.62914,-0.35854 -0.57321,-1.17786 0.0315,-0.46194 0.11791,-0.90356 0.19196,-0.98137 0.074,-0.0778 2.01695,-0.11176 4.31757,-0.0754 3.84803,0.0608 4.25937,0.0962 5.1374,0.44315 1.7287,0.68294 2.66336,2.2288 2.66336,4.40486 0,1.89951 -0.7244,3.31951 -2.10666,4.12957 -1.02115,0.59843 -2.21536,0.89202 -4.16123,1.02301 l -1.64059,0.11044 v 1.29011 1.2901 l 0.91973,0.28992 c 0.50585,0.15945 0.96545,0.3639 1.02133,0.45432 0.0559,0.0904 0.0497,0.57954 -0.0137,1.08694 l -0.11527,0.92253 h -2.99805 c -2.71039,0 -3.00629,-0.0283 -3.08394,-0.29447 z m 7.59943,-7.94885 c 0.84218,-0.38224 1.21359,-1.07795 1.21359,-2.27328 0,-1.82581 -0.72924,-2.43734 -3.0653,-2.57054 l -1.47787,-0.0843 v 2.63146 2.63145 l 1.30406,-0.004 c 0.92632,-0.003 1.51304,-0.0985 2.02552,-0.33114 z m 8.44716,7.94885 c -0.001,-0.16195 -0.0483,-0.57541 -0.10507,-0.91878 -0.0963,-0.58259 -0.0624,-0.64838 0.50665,-0.98415 l 0.60987,-0.35983 v -5.50498 -5.50498 l -0.6041,-0.28807 -0.6041,-0.28808 0.11966,-0.87888 c 0.0658,-0.48339 0.20149,-0.93064 0.30148,-0.9939 0.2529,-0.16 2.41267,-0.34594 3.22691,-0.27782 l 0.67306,0.0563 0.0841,6.85839 0.0841,6.8584 0.54686,0.33248 c 0.57102,0.34718 0.64733,0.63438 0.4417,1.66253 l -0.10517,0.52583 h -2.58708 c -2.35101,0 -2.58725,-0.0269 -2.58894,-0.29447 z m 23.66509,-0.0841 c -0.0558,-0.20823 -0.10249,-0.62724 -0.10376,-0.93114 -0.002,-0.45424 0.10248,-0.61435 0.58664,-0.90001 l 0.58893,-0.34748 v -3.07967 -3.07967 l -0.58893,-0.34748 c -0.48416,-0.28566 -0.58852,-0.44578 -0.58664,-0.90002 0.004,-0.9286 0.16939,-1.28389 0.64581,-1.38618 0.70855,-0.15213 2.24707,-0.22568 2.84341,-0.13593 0.468816,0.0706 0.546856,0.1503 0.546856,0.5587 v 0.47639 l 0.94411,-0.43223 c 1.8734,-0.85767 4.42328,-0.63864 5.34714,0.45929 0.74632,0.88696 0.94417,1.9459 0.94417,5.05345 v 2.81335 l 0.58893,0.34748 c 0.48416,0.28566 0.58852,0.44577 0.58663,0.90001 -0.006,1.35834 0.0972,1.30974 -2.77027,1.30974 h -2.56505 l -0.10516,-0.8834 c -0.0932,-0.78323 -0.0625,-0.91636 0.27103,-1.17411 0.2069,-0.1599 0.47083,-0.29241 0.58651,-0.29447 0.2659,-0.005 0.30191,-5.5758 0.0392,-6.06665 -0.35421,-0.66185 -1.9592,-0.77626 -3.06799,-0.2187 l -0.46273,0.23269 v 3.02446 c 0,2.30539 0.05,3.02535 0.21033,3.0282 0.11569,0.002 0.37962,0.13457 0.58652,0.29447 0.33353,0.25775 0.36426,0.39088 0.27103,1.17411 l -0.10516,0.8834 h -2.565046 c -2.51782,0 -2.56693,-0.007 -2.66652,-0.3786 z m 15.635346,0.16826 c -0.0357,-0.11568 -0.10126,-0.52748 -0.14558,-0.91512 -0.0874,-0.76405 0.0538,-0.97355 0.97214,-1.44303 0.46851,-0.2395 0.62674,-0.6393 2.62215,-6.62548 l 2.12355,-6.3706 h 1.57557 1.57556 l 2.19957,6.36795 2.19958,6.36796 0.66986,0.45611 c 0.64914,0.44199 0.66803,0.48187 0.61021,1.28813 -0.0328,0.45761 -0.0941,0.88881 -0.13613,0.95822 -0.0421,0.0694 -1.23693,0.1262 -2.65526,0.1262 h -2.5788 l -0.11969,-0.95796 c -0.1245,-0.99647 -0.11925,-1.00797 0.68025,-1.48946 0.27692,-0.16677 0.27697,-0.22094 0.001,-1.05166 l -0.29086,-0.87583 h -2.3073 -2.3073 l -0.20316,0.75961 c -0.26942,1.00733 -0.27676,0.97528 0.30163,1.31694 0.53141,0.31392 0.61617,0.68985 0.39963,1.77253 l -0.10516,0.52583 h -2.50824 c -1.85974,0 -2.52503,-0.0544 -2.57323,-0.21034 z m 7.98012,-8.41328 c -0.34691,-1.13369 -0.68435,-2.45878 -0.74986,-2.94464 -0.0655,-0.48587 -0.17731,-0.8834 -0.24843,-0.8834 -0.0711,0 -0.17683,0.40435 -0.23492,0.89856 -0.0581,0.49421 -0.37138,1.77528 -0.69622,2.84684 -0.32485,1.07155 -0.59063,1.99229 -0.59063,2.04609 0,0.0538 0.70893,0.0978 1.5754,0.0978 h 1.57541 z m -20.440336,-23.989 c -3.79439,-2.19498 -12.60178,-7.27925 -19.57196,-11.29837 l -12.67307,-7.30749 0.0844,-1.01879 c 0.0464,-0.56034 0.0893,-3.45528 0.0952,-6.4332 l 0.0108,-5.4144 3.86074,-2.24168 c 2.12341,-1.23293 3.79721,-2.30564 3.71957,-2.38381 -0.0776,-0.0782 -1.83183,-1.11896 -3.8982,-2.31287 l -3.75704,-2.17075 0.0513,-6.43694 c 0.0282,-3.54032 0.10188,-6.48618 0.16367,-6.54637 0.0618,-0.0602 5.52627,-3.24973 12.14332,-7.08788 6.61704,-3.83815 15.30512,-8.88105 19.30685,-11.20644 4.001716,-2.32538 7.319416,-4.22797 7.372656,-4.22797 0.0803,0 23.33901,13.36876 29.85773,17.16179 1.06428,0.61927 3.62398,2.09834 5.68821,3.28682 l 3.75316,2.16089 -0.0837,0.93657 c -0.046,0.51511 -0.088,3.40934 -0.0934,6.43162 l -0.01,5.49504 -3.86406,2.24518 c -2.12524,1.23484 -3.86445,2.28303 -3.86492,2.3293 -5.1e-4,0.0463 1.78052,1.09947 3.95777,2.34044 l 3.95863,2.2563 -0.084,0.94074 c -0.0462,0.51741 -0.0884,3.41398 -0.0937,6.43683 l -0.01,5.49608 -4.41697,2.56159 c -2.42934,1.40887 -6.19638,3.60217 -8.37122,4.874 -10.21539,5.97389 -26.08804,15.14038 -26.20413,15.13294 -0.0712,-0.005 -3.23393,-1.80418 -7.028326,-3.99917 z m 20.892316,-16.8704 c 7.48117,-4.35678 13.65528,-7.97254 13.72025,-8.03502 0.065,-0.0625 -1.62802,-1.12273 -3.7622,-2.35611 l -3.88031,-2.2425 -2.8843,1.66649 c -1.58636,0.91657 -6.04989,3.50722 -9.91896,5.757 -6.35672,3.6963 -7.07378,4.07268 -7.44065,3.90552 -0.22329,-0.10174 -3.83459,-2.16912 -8.025106,-4.59419 -11.54581,-6.68159 -11.59249,-6.70818 -11.77646,-6.70818 -0.16445,0 -6.83531,3.81831 -7.42793,4.25164 -0.24707,0.18066 0.72883,0.79396 7.15894,4.49906 4.09475,2.35943 8.69664,5.01388 10.22644,5.89877 1.52979,0.88489 4.333686,2.50298 6.230876,3.59577 1.89719,1.09278 3.52138,2.05353 3.6093,2.13502 0.0879,0.0815 0.25168,0.14814 0.36392,0.14814 0.11223,0 6.32502,-3.56464 13.80619,-7.92141 z m -9.50353,-16.49955 c 2.2504,-1.30799 4.15079,-2.431 4.22308,-2.49557 0.0723,-0.0646 -1.87889,-1.27255 -4.33597,-2.68438 l -4.4674,-2.56699 -4.29547,2.48026 c -2.362516,1.36414 -4.235166,2.53285 -4.161446,2.59712 0.12177,0.10617 1.12845,0.69168 6.856036,3.98758 1.01328,0.58308 1.89794,1.06015 1.96592,1.06015 0.068,0 1.96485,-1.07018 4.21525,-2.37817 z m -14.442226,-14.95322 c 5.429376,-3.14657 9.913616,-5.72103 9.964976,-5.72103 0.0514,0 4.55762,2.57446 10.01391,5.72103 5.45629,3.14657 10.01367,5.72103 10.12751,5.72103 0.17398,0 6.10301,-3.35485 7.32779,-4.14631 0.37777,-0.24412 -0.0856,-0.5281 -13.59372,-8.33203 l -13.98481,-8.07929 -3.40111,1.97557 c -1.87061,1.08656 -5.180516,3.00998 -7.355356,4.27426 -2.17483,1.26429 -6.71874,3.9001 -10.09758,5.85736 -3.37883,1.95726 -6.27448,3.65602 -6.43476,3.77503 -0.25622,0.19023 0.17093,0.48465 3.53522,2.43672 2.10465,1.22119 3.87158,2.22447 3.92649,2.22952 0.0549,0.005 4.54206,-2.56529 9.97144,-5.71186 z"
         id="path169"
         clip-path="url(#clipPath401)" />
      <path
         style="fill:#124359;stroke-width:0.168266"
         d="m -69.875394,215.97069 c -0.037,-0.11568 -0.0959,-0.50015 -0.13072,-0.85437 -0.0591,-0.60062 -0.0202,-0.66607 0.57742,-0.97095 l 0.6408,-0.32691 v -5.35288 -5.35289 l -0.6279,-0.40679 c -0.59056,-0.38259 -0.6248,-0.45183 -0.57554,-1.16399 0.0288,-0.41645 0.12401,-0.83107 0.21157,-0.92137 0.0875,-0.0903 0.9523,-0.19353 1.92166,-0.22941 l 1.76246,-0.0652 v 0.52388 c 0,0.28813 0.0287,0.52388 0.0638,0.52388 0.0351,0 0.50834,-0.20451 1.05166,-0.45446 1.75084,-0.80546 4.0422,-0.58783 5.11594,0.48591 0.68443,0.68444 0.95758,1.39638 1.18159,3.07975 0.45263,3.40132 -0.6027,5.83171 -3.02353,6.96305 -0.81034,0.37871 -1.15473,0.43755 -2.49647,0.42656 l -1.55646,-0.0128 v 0.94841 0.9484 l 0.8634,0.36478 c 0.82918,0.35032 0.85918,0.3858 0.75719,0.89575 -0.0584,0.29204 -0.1062,0.67296 -0.1062,0.84648 0,0.29577 -0.17399,0.3155 -2.78166,0.3155 -2.07724,0 -2.79872,-0.0533 -2.84901,-0.21033 z m 6.64289,-6.49808 c 0.81942,-0.43929 1.36658,-1.56762 1.47154,-3.03458 0.1124,-1.571 -0.0678,-2.62006 -0.54547,-3.17455 -0.34511,-0.40065 -0.51092,-0.45685 -1.29327,-0.4383 -0.49358,0.0117 -1.18136,0.14035 -1.52841,0.28588 l -0.631,0.2646 v 3.11033 3.11032 l 0.46273,0.0701 c 1.01129,0.15319 1.5027,0.10705 2.06388,-0.1938 z m 8.83755,6.49808 c -0.037,-0.11568 -0.0959,-0.50015 -0.13072,-0.85437 -0.0591,-0.60062 -0.0202,-0.66607 0.57742,-0.97095 l 0.6408,-0.32691 v -5.35288 -5.35289 l -0.62791,-0.40679 c -0.59055,-0.38259 -0.62479,-0.45183 -0.57553,-1.16399 0.0288,-0.41645 0.12401,-0.83107 0.21157,-0.92137 0.0875,-0.0903 0.95229,-0.19353 1.92165,-0.22941 l 1.76247,-0.0652 v 0.52388 c 0,0.28813 0.0287,0.52388 0.0638,0.52388 0.0351,0 0.50833,-0.20451 1.05166,-0.45446 1.75084,-0.80546 4.04219,-0.58783 5.11593,0.48591 0.68444,0.68444 0.95758,1.39638 1.1816,3.07975 0.45263,3.40132 -0.60271,5.83171 -3.02354,6.96305 -0.81033,0.37871 -1.15472,0.43755 -2.49646,0.42656 l -1.55646,-0.0128 v 0.94841 0.9484 l 0.86339,0.36478 c 0.82919,0.35032 0.85919,0.3858 0.7572,0.89575 -0.0584,0.29204 -0.1062,0.67296 -0.1062,0.84648 0,0.29577 -0.17399,0.3155 -2.78166,0.3155 -2.07724,0 -2.79872,-0.0533 -2.84901,-0.21033 z m 6.64289,-6.49808 c 0.81942,-0.43929 1.36657,-1.56762 1.47153,-3.03458 0.11241,-1.571 -0.0678,-2.62006 -0.54546,-3.17455 -0.34511,-0.40065 -0.51093,-0.45685 -1.29328,-0.4383 -0.49357,0.0117 -1.18136,0.14035 -1.52841,0.28588 l -0.63099,0.2646 v 3.11033 3.11032 l 0.46273,0.0701 c 1.01129,0.15319 1.50269,0.10705 2.06388,-0.1938 z m -67.605766,2.34656 c -2.47022,-0.62871 -3.40563,-3.65738 -1.64301,-5.31975 0.75179,-0.70903 1.59394,-0.91913 3.68414,-0.91913 1.98382,0 1.85795,0.0875 1.80682,-1.25548 -0.0455,-1.19567 -0.70297,-1.77614 -2.00556,-1.77073 -0.81567,0.003 -0.96234,0.12127 -1.14832,0.92289 l -0.15615,0.67306 -1.04708,0.0501 c -0.99589,0.0477 -1.0553,0.0285 -1.21536,-0.3925 -0.18015,-0.47383 -0.26958,-2.2183 -0.12132,-2.36656 0.0491,-0.0491 0.64593,-0.28649 1.32632,-0.52757 1.57229,-0.5571 4.3424,-0.63559 5.44142,-0.15417 1.72503,0.75563 1.96398,1.36322 2.09046,5.31543 l 0.0993,3.10262 0.54686,0.1413 c 0.53964,0.13945 0.54686,0.15449 0.54686,1.13961 v 0.99829 l -0.63099,0.1697 c -0.34705,0.0933 -1.07879,0.1909 -1.62608,0.21682 l -0.99508,0.0471 -0.15584,-0.58893 c -0.20325,-0.76814 -0.20614,-0.76959 -0.66132,-0.33367 -0.21435,0.20528 -0.6259,0.47479 -0.91457,0.59891 -0.67286,0.28932 -2.51094,0.43345 -3.22149,0.25261 z m 3.48198,-2.50889 c 0.32643,-0.23882 0.41251,-0.45904 0.42759,-1.0939 0.0104,-0.43719 -0.0321,-0.87746 -0.0945,-0.9784 -0.19373,-0.31347 -2.42376,-0.10393 -2.83273,0.26618 -0.60825,0.55046 -0.38646,1.79741 0.37724,2.12095 0.5044,0.2137 1.6278,0.0471 2.12243,-0.31483 z m -31.18028,1.97001 c -0.23112,-1.15559 -0.14268,-1.48091 0.48376,-1.77965 l 0.58893,-0.28084 v -5.18779 -5.18779 l -0.58893,-0.28084 c -0.51133,-0.24384 -0.58862,-0.35988 -0.58663,-0.88067 0.001,-0.32991 0.048,-0.7702 0.10376,-0.97843 0.10119,-0.3776 0.11086,-0.37859 3.65748,-0.37568 5.02069,0.004 6.65205,0.4128 7.71284,1.93214 0.86801,1.24321 1.01695,3.6492 0.32209,5.20293 -0.81004,1.81124 -2.72638,2.70794 -6.07744,2.84377 l -1.26199,0.0512 -0.0487,1.36936 -0.0487,1.36935 0.6638,0.17875 c 1.08264,0.29152 1.32744,0.61619 1.24158,1.64667 l -0.0736,0.8834 h -2.9915 -2.99151 z m 7.5384,-7.61898 c 0.94878,-0.39643 1.3023,-1.13044 1.23847,-2.57148 -0.0434,-0.98 -0.12596,-1.28634 -0.43542,-1.61575 -0.50939,-0.54222 -1.41663,-0.79268 -2.87131,-0.79268 h -1.2004 v 2.71719 2.71719 l 1.33729,-0.10313 c 0.73551,-0.0567 1.60463,-0.21482 1.93137,-0.35134 z m 8.50763,7.59794 c -0.001,-0.30077 -0.0436,-0.70075 -0.0942,-0.88883 -0.072,-0.26804 0.0558,-0.42496 0.59123,-0.72589 l 0.68311,-0.38393 v -5.42967 -5.42968 l -0.631,-0.40833 c -0.34704,-0.22458 -0.62342,-0.50229 -0.61416,-0.61712 0.009,-0.11484 0.0282,-0.50703 0.0421,-0.87154 0.0246,-0.64677 0.0425,-0.66515 0.74036,-0.76191 0.82043,-0.11376 1.7494,-0.15239 2.77639,-0.11545 l 0.71513,0.0257 v 6.86772 6.86773 l 0.60977,0.29078 c 0.57613,0.27474 0.60408,0.3252 0.50665,0.91456 -0.0567,0.34308 -0.10396,0.75629 -0.10498,0.91824 -0.002,0.2677 -0.23893,0.29447 -2.60997,0.29447 h -2.60812 l -0.002,-0.54687 z m 23.63995,-0.32113 c -0.10825,-0.78707 -0.0823,-0.89653 0.27868,-1.17412 0.21894,-0.16836 0.49271,-0.3078 0.60839,-0.30986 0.16099,-0.003 0.20944,-0.76366 0.20651,-3.24285 l -0.004,-3.23912 -0.54304,-0.27225 c -0.51836,-0.25988 -0.54128,-0.31264 -0.50417,-1.16065 0.0214,-0.48862 0.0835,-0.93298 0.13795,-0.98747 0.0545,-0.0545 0.93658,-0.12774 1.96019,-0.16277 l 1.861106,-0.0637 -0.0769,0.52416 c -0.0423,0.28829 -0.0382,0.52416 0.009,0.52416 0.0473,0 0.40554,-0.15469 0.79609,-0.34375 1.65262,-0.80002 3.76009,-0.79348 5.09083,0.0158 1.03979,0.63233 1.25914,1.47414 1.34031,5.14373 l 0.0712,3.21725 0.56944,0.27154 c 0.59526,0.28386 0.63866,0.42467 0.46143,1.49692 l -0.10429,0.63099 h -2.49063 c -2.75457,0 -2.60394,0.0653 -2.71377,-1.17596 -0.0458,-0.51792 0.0223,-0.63515 0.57906,-0.99572 l 0.63099,-0.40869 -0.009,-2.45372 c -0.006,-1.43644 -0.0928,-2.69607 -0.21033,-3.03827 -0.35691,-1.03882 -1.51052,-1.29236 -2.98809,-0.65673 l -0.83046,0.35726 v 2.89573 2.89574 l 0.63099,0.40869 c 0.55671,0.36057 0.62488,0.47779 0.57906,0.99572 -0.10984,1.2414 0.0415,1.17596 -2.719986,1.17596 h -2.49687 z m 15.646256,0.30564 c -0.20447,-1.08996 -0.0526,-1.49829 0.6897,-1.85489 l 0.68359,-0.32837 2.14807,-6.45154 2.14808,-6.45155 h 1.48909 1.48909 l 0.32184,0.8834 c 0.17702,0.48587 1.18574,3.40798 2.24161,6.49358 l 1.91977,5.61019 0.63099,0.3246 c 0.55929,0.2877 0.63074,0.39591 0.6287,0.95216 -0.005,1.44423 0.11374,1.38478 -2.7723,1.38478 h -2.56708 l -0.088,-0.8834 c -0.0909,-0.91303 0.15985,-1.47232 0.66017,-1.47232 0.29146,0 0.28513,-0.24568 -0.034,-1.32028 l -0.26032,-0.87657 -2.28903,0.0468 -2.28904,0.0468 -0.203,0.58893 c -0.45044,1.30681 -0.45723,1.24919 0.1882,1.59677 0.58721,0.31624 0.60297,0.34971 0.50411,1.07098 -0.0561,0.40949 -0.10205,0.84754 -0.10205,0.97344 0,0.18284 -0.50651,0.22892 -2.51636,0.22892 h -2.51636 z m 8.56799,-5.96816 c 0.0464,-0.075 -0.17338,-0.94846 -0.48835,-1.94094 -0.31496,-0.99248 -0.617,-2.08581 -0.6712,-2.42962 -0.0542,-0.34381 -0.13629,-0.87121 -0.18241,-1.17198 -0.13692,-0.8928 -0.35211,-0.62791 -0.5468,0.67306 -0.10041,0.67096 -0.44053,2.03111 -0.75582,3.02257 -0.3153,0.99144 -0.53261,1.84329 -0.48292,1.89298 0.14598,0.14599 3.03511,0.10342 3.1275,-0.0461 z m -13.96819,-22.37586 c 0.0452,-0.0731 0.10012,-2.8775 0.12205,-6.23194 0.0266,-4.07066 0.10051,-6.17445 0.22222,-6.32591 0.10029,-0.12482 6.39135,-3.84477 13.98013,-8.26656 17.93521,-10.45039 23.43281,-13.65971 24.11207,-14.07584 l 0.55488,-0.33993 -0.0418,4.94045 c -0.023,2.71725 -0.0834,5.65378 -0.13422,6.52562 l -0.0924,1.58518 -0.75719,0.45132 c -0.41646,0.24822 -2.68805,1.57093 -5.04797,2.93935 -2.35993,1.36842 -8.00103,4.64374 -12.53579,7.27848 -4.53476,2.63475 -10.90351,6.33446 -14.15279,8.22159 -5.34989,3.10714 -6.48134,3.70621 -6.22917,3.29819 z m 0.10147,-21.87305 c -0.0593,-1.59985 0.0706,-12.09611 0.15689,-12.67985 0.009,-0.059 1.8142,-1.15146 4.01217,-2.42768 2.19797,-1.27622 4.29918,-2.5198 4.66937,-2.7635 0.62031,-0.40838 5.48329,-3.22152 14.55497,-8.41979 1.98974,-1.14017 3.92059,-2.27567 4.29078,-2.52333 0.37018,-0.24767 2.86893,-1.72335 5.55276,-3.27929 2.68384,-1.55594 5.0537,-2.94135 5.26635,-3.07868 l 0.38665,-0.2497 -0.0418,4.9464 c -0.023,2.72052 -0.0834,5.6625 -0.13425,6.53775 l -0.0924,1.59136 -1.85092,1.07658 c -1.01801,0.59212 -3.21387,1.89056 -4.8797,2.88542 -2.73336,1.6324 -7.39277,4.33639 -14.21845,8.25136 -1.34192,0.76968 -5.43077,3.13856 -9.08634,5.26417 -3.65557,2.12562 -7.08188,4.11787 -7.61402,4.42722 -0.53214,0.30936 -0.96954,0.50806 -0.97201,0.44156 z m -39.176436,-5.35466 c 0.0225,-2.76675 0.0829,-5.70839 0.13415,-6.53698 l 0.0933,-1.50651 3.78598,-2.21926 c 4.45722,-2.61273 14.26427,-8.31388 17.49962,-10.17309 1.24938,-0.71796 5.62798,-3.25017 9.73023,-5.62715 4.102246,-2.37697 7.494836,-4.28557 7.539076,-4.24133 0.0739,0.074 0.0719,8.74555 -0.003,11.47608 l -0.0322,1.17786 -2.01279,1.19152 c -1.10704,0.65533 -2.95929,1.74564 -4.11612,2.42289 -1.156816,0.67726 -4.488486,2.62904 -7.403686,4.33728 -2.9152,1.70824 -5.83041,3.39347 -6.47823,3.74496 -0.64782,0.35149 -2.65439,1.50834 -4.45904,2.57077 -1.80465,1.06243 -5.59062,3.27903 -8.41328,4.92577 -2.82265,1.64675 -5.30605,3.10514 -5.51865,3.24087 l -0.38656,0.24679 z m 0.0131,-23.45117 c 0.0703,-5.15657 0.13347,-6.47017 0.31925,-6.64089 0.12737,-0.11705 5.75911,-3.41638 12.51497,-7.33185 6.75586,-3.91547 15.33715,-8.89282 19.06954,-11.06077 3.732386,-2.16795 6.822176,-3.90571 6.866206,-3.86168 0.0751,0.0751 0.0701,8.91281 -0.007,11.46415 -0.0308,1.02558 -0.0848,1.20166 -0.44635,1.4559 -0.22622,0.15907 -3.66725,2.17727 -7.646726,4.48489 -8.52549,4.94404 -17.55186,10.20087 -24.86131,14.47915 -2.89176,1.69257 -5.40141,3.1588 -5.577,3.25829 -0.31172,0.17663 -0.31718,0.0294 -0.23158,-6.24719 z"
         id="path167"
         clip-path="url(#clipPath397)" />
    </g>
  </g>
</svg>
