<?xml version="1.0" encoding="iso-8859-1"?>
<!-- Generator: Adobe Illustrator 18.0.0, SVG Export Plug-In . SVG Version: 6.00 Build 0)  -->
<!DOCTYPE svg PUBLIC "-//W3C//DTD SVG 1.1//EN" "http://www.w3.org/Graphics/SVG/1.1/DTD/svg11.dtd">
<svg version="1.1" id="Capa_1" xmlns="http://www.w3.org/2000/svg" xmlns:xlink="http://www.w3.org/1999/xlink" x="0px" y="0px"
	 viewBox="0 0 123.42 123.42" style="enable-background:new 0 0 123.42 123.42;" xml:space="preserve">
<g>
	<g>
		<g>
			<path style="fill:#F0505D;" d="M99.54,52.584c3.542,0,6.416-2.874,6.416-6.417c0-3.548-2.874-6.422-6.416-6.422
				c-3.548,0-6.422,2.874-6.422,6.422C93.118,49.71,95.992,52.584,99.54,52.584z"/>
		</g>
		<g>
			<path style="fill:#EED915;" d="M92.238,34.103c-3.91,2.373-6.572,6.602-6.772,11.469l-0.006,0.044
				c-0.006,0.184-0.027,0.368-0.027,0.552c0,5.113,2.729,9.581,6.806,12.054c0.429,0.262,0.869,0.501,1.325,0.712l5.977,9.82
				l5.965-9.82c3.955-1.849,6.906-5.47,7.837-9.842c0.2-0.94,0.301-1.921,0.301-2.924c0-0.194-0.017-0.379-0.028-0.573v-0.022
				c-0.316-7.513-6.488-13.513-14.074-13.513c-2.68,0-5.174,0.746-7.302,2.039V34.103z M99.54,39.745
				c3.542,0,6.416,2.874,6.416,6.422c0,3.543-2.874,6.417-6.416,6.417c-3.548,0-6.422-2.874-6.422-6.417
				C93.118,42.619,95.992,39.745,99.54,39.745z"/>
		</g>
		<g>
			<path style="fill:#20B0A8;" d="M92.238,2.784l-7.052,1.683l-22.083,5.28L33.968,2.784L4.827,9.737V123.42l29.141-6.951
				l29.136,6.951l29.135-6.951l29.141,6.951V9.737L92.238,2.784z M115.687,46.167v43.149v8.717v19.494l-23.448-6.271l-29.135,6.271
				l-29.136-6.271l-23.448,6.271V50.406V14.949l23.448-6.271l29.136,6.271l2.339-0.507l16.486-3.549l10.31-2.216l23.448,6.271
				V46.167z"/>
		</g>
		<g>
			<path style="fill:#FFFFFF;" d="M115.687,89.317V46.167V14.949L92.238,8.678l-10.31,2.216l-16.486,3.549l-2.339,0.507
				L33.968,8.678L10.52,14.949v35.457v67.121l23.448-6.271l29.136,6.271l29.135-6.271l23.448,6.271V89.317 M99.54,32.059
				c7.586,0,13.758,6,14.074,13.513v0.022c0.012,0.194,0.028,0.379,0.028,0.573c0,1.003-0.101,1.983-0.301,2.924
				c-0.931,4.372-3.882,7.993-7.837,9.842l-5.965,9.82l-5.977-9.82c-0.456-0.211-0.896-0.45-1.325-0.712
				c-4.077-2.473-6.806-6.94-6.806-12.054c0-0.184,0.021-0.368,0.027-0.552l0.006-0.044c0.2-4.867,2.862-9.096,6.772-11.469v-0.005
				C94.366,32.805,96.861,32.059,99.54,32.059z"/>
		</g>
	</g>
	<g>
		<g>
			<g>
				<g>
					<path style="fill:#231F20;" d="M2.599,121.746c-0.125,0-0.246-0.042-0.346-0.121c-0.134-0.106-0.212-0.266-0.212-0.437V7.507
						c0-0.258,0.177-0.481,0.429-0.542l29.137-6.949c0.166-0.04,0.341-0.001,0.475,0.104s0.212,0.267,0.212,0.438v113.681
						c0,0.258-0.177,0.482-0.429,0.542l-29.137,6.95C2.685,121.74,2.642,121.746,2.599,121.746z M3.155,7.947v112.535l28.023-6.684
						V1.263L3.155,7.947z"/>
				</g>
			</g>
			<g>
				<g>
					<path style="fill:#231F20;" d="M90.011,32.431c-0.308,0-0.558-0.249-0.558-0.557V1.263l-28.45,6.795
						c-0.299,0.071-0.6-0.113-0.672-0.412c-0.071-0.3,0.113-0.601,0.412-0.672l29.139-6.958c0.165-0.04,0.34-0.001,0.474,0.104
						s0.212,0.267,0.212,0.438v31.316C90.568,32.182,90.318,32.431,90.011,32.431z"/>
				</g>
			</g>
			<g>
				<g>
					<path style="fill:#231F20;" d="M60.873,121.746c-0.044,0-0.087-0.006-0.13-0.016l-29.137-6.95
						c-0.251-0.06-0.428-0.284-0.428-0.542V0.558c0-0.171,0.078-0.332,0.212-0.438c0.134-0.105,0.308-0.146,0.475-0.104
						l29.138,6.958c0.25,0.06,0.427,0.284,0.427,0.542v113.673c0,0.171-0.078,0.331-0.212,0.437
						C61.119,121.704,60.997,121.746,60.873,121.746z M32.293,113.799l28.023,6.684V7.955L32.293,1.264V113.799z"/>
				</g>
			</g>
			<g>
				<g>
					<path style="fill:#231F20;" d="M60.873,121.746c-0.124,0-0.246-0.042-0.345-0.121c-0.134-0.106-0.212-0.266-0.212-0.437V10.709
						c0-0.308,0.249-0.557,0.557-0.557c0.308,0,0.557,0.249,0.557,0.557v109.773l28.023-6.684V55.992
						c0-0.307,0.25-0.557,0.558-0.557c0.307,0,0.557,0.25,0.557,0.557v58.246c0,0.258-0.177,0.482-0.428,0.542l-29.137,6.95
						C60.96,121.74,60.917,121.746,60.873,121.746z"/>
				</g>
			</g>
			<g>
				<g>
					<path style="fill:#231F20;" d="M119.148,121.746c-0.043,0-0.086-0.006-0.129-0.016l-29.137-6.95
						c-0.252-0.06-0.429-0.284-0.429-0.542V55.992c0-0.307,0.25-0.557,0.558-0.557c0.307,0,0.557,0.25,0.557,0.557v57.807
						l28.023,6.684V7.947L90.568,1.263v30.611c0,0.308-0.25,0.557-0.557,0.557c-0.308,0-0.558-0.249-0.558-0.557V0.558
						c0-0.171,0.078-0.332,0.212-0.438c0.134-0.105,0.309-0.146,0.475-0.104l29.137,6.949c0.252,0.061,0.429,0.284,0.429,0.542
						v113.682c0,0.171-0.078,0.331-0.212,0.437C119.394,121.704,119.273,121.746,119.148,121.746z"/>
				</g>
			</g>
			<g>
				<g>
					<path style="fill:#231F20;" d="M113.458,115.857c-0.049,0-0.097-0.007-0.144-0.02L89.996,109.6l-29.006,6.243
						c-0.077,0.018-0.157,0.018-0.234,0L31.75,109.6l-23.317,6.237c-0.166,0.046-0.345,0.01-0.482-0.096
						c-0.138-0.106-0.218-0.27-0.218-0.442V12.72c0-0.253,0.169-0.474,0.413-0.539l23.446-6.27c0.085-0.024,0.175-0.026,0.261-0.007
						l29.02,6.245l29.021-6.245c0.086-0.02,0.175-0.018,0.261,0.007l23.447,6.27c0.244,0.065,0.413,0.286,0.413,0.537v102.581
						c0,0.173-0.08,0.336-0.219,0.442C113.698,115.816,113.579,115.857,113.458,115.857z M31.736,108.471
						c0.04,0,0.079,0.004,0.117,0.012l29.02,6.247l29.021-6.247c0.086-0.019,0.175-0.016,0.261,0.007l22.746,6.084V13.146
						L89.996,7.021L60.99,13.264c-0.077,0.017-0.156,0.017-0.234,0L31.75,7.021L8.847,13.147v101.427l22.745-6.084
						C31.64,108.477,31.688,108.471,31.736,108.471z"/>
				</g>
			</g>
		</g>
		<g>
			<g>
				<path style="fill:#231F20;" d="M97.309,67.08c-0.194,0-0.375-0.103-0.476-0.268l-5.89-9.68
					c-5.046-2.438-8.297-7.599-8.297-13.194c0-0.123,0.008-0.244,0.016-0.365c0.005-0.068,0.01-0.137,0.013-0.205
					c0-0.005,0.003-0.055,0.003-0.059c0.329-7.865,6.755-14.033,14.631-14.033c7.875,0,14.302,6.168,14.633,14.043
					c0.004,0.098,0.009,0.168,0.013,0.238c0.01,0.126,0.018,0.252,0.018,0.381c0,1.025-0.106,2.049-0.317,3.042
					c-0.934,4.406-3.914,8.191-7.988,10.156l-5.882,9.676C97.684,66.978,97.503,67.08,97.309,67.08z M97.309,30.391
					c-7.276,0-13.214,5.698-13.518,12.976c-0.006,0.122-0.011,0.202-0.016,0.281c-0.007,0.097-0.014,0.192-0.014,0.291
					c0,5.222,3.064,10.034,7.809,12.259c0.1,0.047,0.183,0.121,0.24,0.215l5.498,9.038l5.493-9.034
					c0.057-0.094,0.14-0.169,0.239-0.215c3.839-1.798,6.65-5.331,7.524-9.452c0.194-0.917,0.293-1.862,0.293-2.811
					c0-0.104-0.007-0.205-0.014-0.306c-0.006-0.082-0.011-0.163-0.014-0.245C110.524,36.089,104.585,30.391,97.309,30.391z"/>
			</g>
		</g>
		<g>
			<g>
				<path style="fill:#231F20;" d="M97.309,50.914c-3.846,0-6.976-3.129-6.976-6.976c0-3.847,3.13-6.977,6.976-6.977
					c3.847,0,6.977,3.13,6.977,6.977C104.285,47.785,101.155,50.914,97.309,50.914z M97.309,38.076c-3.231,0-5.861,2.63-5.861,5.862
					c0,3.232,2.63,5.862,5.861,5.862c3.232,0,5.862-2.63,5.862-5.862C103.171,40.706,100.541,38.076,97.309,38.076z"/>
			</g>
		</g>
		<g>
			<g>
				<path style="fill:#231F20;" d="M111.062,96.359c-0.149,0-0.295-0.058-0.404-0.173l-8.287-8.715
					c-0.213-0.223-0.204-0.575,0.02-0.787c0.223-0.212,0.575-0.203,0.787,0.02l8.288,8.715c0.212,0.223,0.202,0.575-0.021,0.787
					C111.337,96.308,111.198,96.359,111.062,96.359z"/>
			</g>
		</g>
		<g>
			<g>
				<path style="fill:#231F20;" d="M102.774,96.359c-0.138,0-0.276-0.051-0.384-0.153c-0.224-0.212-0.232-0.564-0.02-0.787
					l8.287-8.715c0.213-0.223,0.565-0.231,0.787-0.02c0.223,0.212,0.232,0.564,0.021,0.787l-8.288,8.715
					C103.068,96.301,102.92,96.359,102.774,96.359z"/>
			</g>
		</g>
		<g>
			<g>
				<g>
					<path style="fill:#231F20;" d="M98.352,91.994h-2.084c-0.308,0-0.558-0.249-0.558-0.557c0-0.308,0.25-0.557,0.558-0.557h2.084
						c0.308,0,0.557,0.249,0.557,0.557C98.908,91.745,98.659,91.994,98.352,91.994z"/>
				</g>
			</g>
			<g>
				<g>
					<path style="fill:#231F20;" d="M75.237,92c-0.002,0-0.004,0-0.006,0c-0.809-0.008-2.839-0.186-4.223-1.654
						c-0.211-0.225-0.2-0.577,0.023-0.788c0.223-0.21,0.576-0.2,0.787,0.024c1.091,1.157,2.757,1.297,3.424,1.305
						c0.308,0.003,0.554,0.255,0.551,0.563C75.791,91.755,75.542,92,75.237,92z M92.062,91.994h-4.206
						c-0.308,0-0.557-0.249-0.557-0.557c0-0.308,0.249-0.557,0.557-0.557h4.206c0.308,0,0.557,0.249,0.557,0.557
						C92.618,91.745,92.369,91.994,92.062,91.994z M83.65,91.994h-4.206c-0.308,0-0.557-0.249-0.557-0.557
						c0-0.308,0.249-0.557,0.557-0.557h4.206c0.308,0,0.558,0.249,0.558,0.557C84.207,91.745,83.957,91.994,83.65,91.994z
						 M70.23,86.614c-0.008,0-0.017-0.001-0.025-0.002c-0.308-0.014-0.545-0.273-0.531-0.58c0.082-1.827,0.66-3.233,1.719-4.179
						c0.229-0.206,0.582-0.185,0.786,0.044c0.206,0.229,0.186,0.581-0.044,0.786c-0.826,0.738-1.279,1.882-1.349,3.398
						C70.773,86.379,70.526,86.614,70.23,86.614z M75.712,81.748c-0.308,0-0.557-0.25-0.557-0.557c0-0.309,0.249-0.558,0.557-0.558
						h4.206c0.308,0,0.557,0.249,0.557,0.557c0,0.308-0.249,0.557-0.557,0.557L75.712,81.748z M84.097,81.434
						c-0.237,0-0.458-0.153-0.532-0.393c-0.091-0.294,0.073-0.607,0.367-0.696c1.326-0.411,2.258-1.193,2.767-2.326
						c0.128-0.28,0.456-0.405,0.737-0.278c0.28,0.126,0.405,0.456,0.279,0.736c-0.639,1.416-1.833,2.43-3.454,2.932
						C84.207,81.426,84.152,81.434,84.097,81.434z M87.54,74.693c-0.244,0-0.469-0.163-0.537-0.41
						c-0.323-1.178-1.15-2.037-2.457-2.555c-0.286-0.113-0.426-0.436-0.313-0.723c0.113-0.286,0.435-0.428,0.724-0.313
						c1.65,0.653,2.701,1.762,3.121,3.296c0.082,0.297-0.093,0.603-0.39,0.685C87.638,74.686,87.589,74.693,87.54,74.693z
						 M80.61,71.205h-4.206c-0.307,0-0.557-0.25-0.557-0.558c0-0.308,0.25-0.557,0.557-0.557h4.206c0.309,0,0.558,0.249,0.558,0.557
						C81.167,70.955,80.918,71.205,80.61,71.205z M72.197,71.205h-4.205c-0.308,0-0.558-0.25-0.558-0.558
						c0-0.308,0.25-0.557,0.558-0.557h4.205c0.308,0,0.558,0.249,0.558,0.557C72.755,70.955,72.505,71.205,72.197,71.205z
						 M63.785,71.205h-4.206c-0.308,0-0.557-0.25-0.557-0.558c0-0.308,0.249-0.557,0.557-0.557h4.206
						c0.308,0,0.557,0.249,0.557,0.557C64.342,70.955,64.093,71.205,63.785,71.205z M55.374,71.205h-4.207
						c-0.308,0-0.557-0.25-0.557-0.558c0-0.308,0.249-0.557,0.557-0.557h4.207c0.307,0,0.557,0.249,0.557,0.557
						C55.931,70.955,55.681,71.205,55.374,71.205z M47.107,70.328c-0.097,0-0.193-0.024-0.282-0.076
						c-1.387-0.815-2.241-2.076-2.542-3.748c-0.055-0.303,0.147-0.593,0.451-0.646c0.3-0.056,0.591,0.146,0.646,0.45
						c0.24,1.337,0.917,2.341,2.01,2.983c0.265,0.156,0.354,0.497,0.197,0.763C47.484,70.231,47.297,70.328,47.107,70.328z
						 M45.388,62.882c-0.094,0-0.189-0.023-0.276-0.073c-0.267-0.153-0.358-0.494-0.206-0.76c0.928-1.617,2.525-2.31,3.701-2.605
						c0.297-0.074,0.601,0.106,0.676,0.404c0.075,0.299-0.105,0.602-0.403,0.676c-0.968,0.243-2.274,0.802-3.007,2.078
						C45.769,62.781,45.581,62.882,45.388,62.882z M65.553,60.317h-4.205c-0.308,0-0.558-0.25-0.558-0.557
						c0-0.308,0.25-0.557,0.558-0.557h4.205c0.308,0,0.558,0.249,0.558,0.557C66.111,60.067,65.861,60.317,65.553,60.317z
						 M57.142,60.317h-4.207c-0.308,0-0.557-0.25-0.557-0.557c0-0.308,0.249-0.557,0.557-0.557h4.207
						c0.307,0,0.557,0.249,0.557,0.557C57.698,60.067,57.448,60.317,57.142,60.317z M69.758,60.229
						c-0.268,0-0.504-0.192-0.549-0.466c-0.051-0.304,0.154-0.59,0.458-0.641c0.961-0.159,2.311-0.594,3.286-1.766
						c0.197-0.236,0.549-0.268,0.784-0.071c0.237,0.196,0.27,0.548,0.072,0.784c-1.195,1.436-2.813,1.962-3.961,2.152
						C69.819,60.227,69.788,60.229,69.758,60.229z M74.746,54.377c-0.01,0-0.019,0-0.029-0.001
						c-0.308-0.016-0.543-0.277-0.527-0.585c0.009-0.166,0.014-0.337,0.014-0.513c-0.001-1.265-0.299-2.316-0.888-3.129
						c-0.181-0.249-0.125-0.597,0.124-0.777c0.249-0.181,0.598-0.126,0.777,0.124c0.729,1.006,1.1,2.278,1.101,3.782
						c0,0.195-0.006,0.386-0.016,0.571C75.287,54.147,75.04,54.377,74.746,54.377z M70.232,48.284c-0.036,0-0.074-0.004-0.11-0.012
						c-0.654-0.133-1.177-0.143-1.305-0.142c-0.008,0-0.062,0.002-0.067,0.001l-2.721-0.013c-0.307-0.002-0.556-0.252-0.554-0.56
						c0.001-0.307,0.25-0.555,0.557-0.555c0.001,0,0.001,0,0.003,0l2.719,0.013l0.063-0.001c0.002,0,0.004,0,0.007,0
						c0.218,0,0.792,0.017,1.52,0.164c0.302,0.062,0.497,0.356,0.436,0.657C70.724,48.102,70.491,48.284,70.232,48.284z
						 M61.825,48.1c0,0-0.001,0-0.002,0l-4.206-0.018c-0.308-0.002-0.556-0.253-0.555-0.561c0.001-0.307,0.251-0.554,0.557-0.554
						c0.001,0,0.003,0,0.003,0l4.206,0.019c0.308,0.002,0.556,0.252,0.555,0.56C62.381,47.853,62.132,48.1,61.825,48.1z
						 M53.414,48.063c-0.001,0-0.003,0-0.003,0l-4.206-0.019c-0.308-0.001-0.556-0.252-0.555-0.56
						c0.002-0.308,0.261-0.559,0.56-0.555l4.206,0.019c0.308,0.002,0.556,0.252,0.555,0.56
						C53.969,47.816,53.72,48.063,53.414,48.063z M45.001,48.025c0,0-0.001,0-0.002,0l-4.206-0.019
						c-0.308-0.002-0.556-0.252-0.554-0.56c0.001-0.307,0.25-0.555,0.557-0.555c0.001,0,0.001,0,0.002,0l4.206,0.018
						c0.308,0.002,0.556,0.252,0.555,0.561C45.558,47.778,45.309,48.025,45.001,48.025z M36.589,47.988c0,0-0.001,0-0.002,0
						l-4.205-0.02c-0.309-0.001-0.557-0.252-0.555-0.56c0.001-0.307,0.25-0.555,0.557-0.555c0.001,0,0.002,0,0.002,0l4.206,0.02
						c0.308,0.001,0.556,0.251,0.555,0.56C37.146,47.739,36.896,47.988,36.589,47.988z"/>
				</g>
			</g>
			<g>
				<g>
					<path style="fill:#231F20;" d="M28.105,47.949h-0.002l-2.084-0.01c-0.308-0.001-0.556-0.252-0.555-0.559
						c0.001-0.307,0.25-0.555,0.557-0.555c0.002,0,0.002,0,0.003,0l2.084,0.01c0.308,0.001,0.556,0.251,0.554,0.56
						C28.66,47.701,28.411,47.949,28.105,47.949z"/>
				</g>
			</g>
		</g>
		<g>
			<g>
				<path style="fill:#231F20;" d="M18.232,53.727c-1.482,0-2.876-0.578-3.924-1.625c-2.163-2.164-2.162-5.685,0-7.847
					c1.048-1.049,2.442-1.626,3.924-1.626c1.482,0,2.876,0.577,3.924,1.626c2.163,2.162,2.163,5.682,0,7.847
					C21.108,53.149,19.714,53.727,18.232,53.727z M18.232,43.743c-1.185,0-2.298,0.462-3.136,1.299
					c-1.728,1.729-1.729,4.542-0.001,6.271c0.839,0.838,1.952,1.299,3.137,1.299c1.184,0,2.298-0.461,3.136-1.299
					c1.729-1.729,1.729-4.543,0-6.271C20.529,44.205,19.416,43.743,18.232,43.743z"/>
			</g>
		</g>
	</g>
</g>
<g>
</g>
<g>
</g>
<g>
</g>
<g>
</g>
<g>
</g>
<g>
</g>
<g>
</g>
<g>
</g>
<g>
</g>
<g>
</g>
<g>
</g>
<g>
</g>
<g>
</g>
<g>
</g>
<g>
</g>
</svg>
