<svg xmlns="http://www.w3.org/2000/svg" xmlns:xlink="http://www.w3.org/1999/xlink" width="64" height="64" viewBox="0 0 64 64">
    <defs>
        <path id="prefix__a" d="M39.712.096c-.864-.192-2.112.16-3.168.416-11.456 2.688-22.24 5.152-33.6 8.192-.768.192-2.656.672-2.688 1.216-.032.544.096 5.344.352 5.856.224.448.608.8.96 1.152 3.232 3.008 6.912 4.64 10.56 7.136 1.024.704 2.08 1.376 3.104 2.048 1.152.736 2.656 1.728 3.712 1.728s24.896-6.816 37.312-10.432l.288-.224c1.28-1.12.672-6.016.224-6.528l-.288-.256c-2.016-1.088-4-2.144-6.016-3.232a94.407 94.407 0 01-3.072-1.696C44.768 3.904 40.576.288 39.712.096z"/>
    </defs>
    <g fill="none" fill-rule="evenodd">
        <g fill-rule="nonzero">
            <path fill="#FFF" d="M.672 21.408c-.128-2.624.032-5.248.256-7.872.096-1.184.064-2.368.096-3.552.032-.896.032-1.952.032-2.848-.032-1.92.16-5.76.16-5.76.192-.992 1.664-.992 1.92-.096 0 0-.096 14.016.672 20.384-.032.064-2.784 7.744-3.136-.256z" transform="translate(3.2 4.16) translate(26.88 8)"/>
            <path fill="#010202" d="M1.248 21.408a44.887 44.887 0 01.032-4.64c.064-1.504.256-3.008.288-4.544.064-2.432.032-4.864.096-7.296l.096-2.752c0-.224 0-.48.032-.704v-.064c-.032.128 0 0 .032-.032.096-.064.128-.128.256-.16.096-.032.224 0 .32.032.064.032.096.096.16.128s0 .256 0-.064v1.152c0 3.264.032 6.528.128 9.76.064 1.952.128 3.872.256 5.824l.192 2.592c.032.192.032.352.064.544 0 .096 0 .192.032.256 0 .032.032.256.032.064 0 .064-.064.16-.096.224l-.192.48-.032.064c-.032.032-.032.096-.064.128-.064.128-.096.256-.16.384-.224.448-.448.896-.736 1.312-.064.096.064-.064-.032.032a.442.442 0 00-.096.128l-.096.096-.032.032c-.032.032-.064.032-.096.064-.096.032.128-.032 0 0s.128 0 .032 0c0 0 .064 0 .128.032-.128-.032.064.032 0 0s-.064-.064 0 0c-.064-.096-.128-.224-.128-.256-.128-.352-.192-.736-.256-1.088a9.905 9.905 0 01-.16-1.728c-.032-.736-1.184-.736-1.152 0 .064 1.056.096 2.208.48 3.2.224.544.64 1.12 1.312.96.992-.192 1.568-1.568 1.92-2.4.192-.384.352-.8.512-1.216a.823.823 0 00.032-.48c-.032-.416-.096-.8-.128-1.216-.16-1.984-.256-4-.352-5.984A329.175 329.175 0 013.68 3.008V1.664c0-.384-.032-.704-.32-1.024C2.72-.096 1.44-.096.864.672.48 1.184.576 1.856.544 2.464.448 4.704.48 6.944.448 9.184c-.032 1.6-.032 3.2-.16 4.8a84.33 84.33 0 00-.256 4.96c0 .8 0 1.632.032 2.432.064.768 1.216.768 1.184.032z" transform="translate(3.2 4.16) translate(26.88 8)"/>
            <path fill="#020203" d="M3.68 19.424c-.256-.224-.576-.32-.896-.384-.352-.064-.736-.096-1.088 0-.352.096-.672.352-.928.576-.288.288-.512.672-.448 1.088.032.16.224.224.352.192.16-.032.224-.192.192-.352 0-.064.032-.192.096-.288.064-.128.192-.224.288-.32a2.67 2.67 0 01.384-.256c.032-.032.064-.032.096-.064s0 0 .032 0c.064-.032.128-.032.16-.032.096-.032.224-.032.352-.032.128 0 .256.032.384.032l.384.096c.032 0 .064.032.128.064.032 0 .032.032.064.032.064.032 0 0 .032.032.128.096.288.128.416 0 .096-.064.128-.256 0-.384z" transform="translate(3.2 4.16) translate(26.88 8)"/>
        </g>
        <g transform="translate(3.2 4.16) translate(0 27.52)">
            <path fill="#FFF" fill-rule="nonzero" d="M39.712.096c-.864-.192-2.112.16-3.168.416-11.456 2.688-22.24 5.152-33.6 8.192-.768.192-2.656.672-2.688 1.216-.032.544.096 5.344.352 5.856.224.448.608.8.96 1.152 3.232 3.008 6.912 4.64 10.56 7.136 1.024.704 2.08 1.376 3.104 2.048 1.152.736 2.656 1.728 3.712 1.728s24.896-6.816 37.312-10.432l.288-.224c1.28-1.12.672-6.016.224-6.528l-.288-.256c-2.016-1.088-4-2.144-6.016-3.232a94.407 94.407 0 01-3.072-1.696C44.768 3.904 40.576.288 39.712.096z"/>
            <mask id="prefix__b" fill="#fff">
                <use xlink:href="#prefix__a"/>
            </mask>
            <path fill="#1E120D" fill-rule="nonzero" d="M-2.496-.416s-.672 9.984 9.056 15.648c9.92 5.76 11.584 5.952 12.064 6.912.48.96-.384 15.008-3.872 14.688-6.208-.608 8.256 6.944-5.152-.896-13.408-7.84-15.68-15.68-14.976-23.424.704-7.744 2.88-12.928 2.88-12.928z" mask="url(#prefix__b)" opacity=".3"/>
            <path stroke="#010202" stroke-width="1.142" d="M39.712.096c-.864-.192-2.112.16-3.168.416-11.456 2.688-22.24 5.152-33.6 8.192-.768.192-2.656.672-2.688 1.216-.032.544.096 5.344.352 5.856.224.448.608.8.96 1.152 3.232 3.008 6.912 4.64 10.56 7.136 1.024.704 2.08 1.376 3.104 2.048 1.152.736 2.656 1.728 3.712 1.728s24.896-6.816 37.312-10.432l.288-.224c1.28-1.12.672-6.016.224-6.528l-.288-.256c-2.016-1.088-4-2.144-6.016-3.232a94.407 94.407 0 01-3.072-1.696C44.768 3.904 40.576.288 39.712.096z"/>
            <path fill="#020203" fill-rule="nonzero" d="M.544 10.464c.672 1.216 1.824 2.016 2.848 2.88.992.864 2.08 1.632 3.168 2.336 2.432 1.536 4.992 2.848 7.552 4.16 1.344.704 2.688 1.376 4 2.144.32.192.608-.32.288-.512-4.672-2.72-9.888-4.704-14.112-8.128-.576-.48-1.152-.96-1.696-1.44-.608-.512-1.152-1.056-1.536-1.76-.192-.288-.672 0-.512.32zM19.52 22.112c9.408-2.432 18.752-5.216 28.128-7.84 1.344-.384 2.688-.736 4.032-1.12 1.248-.352 2.592-.608 3.68-1.344.32-.192.032-.704-.288-.512-.992.64-2.176.896-3.328 1.216-1.216.32-2.4.672-3.616.992-2.336.64-4.704 1.312-7.04 1.984a960.642 960.642 0 01-13.696 3.872c-2.688.736-5.376 1.472-8.064 2.144-.32.16-.16.704.192.608z"/>
            <path fill="#72B62E" fill-rule="nonzero" d="M43.168 18.08c.736 0 .736-1.152 0-1.152s-.736 1.152 0 1.152zM45.664 17.312c.736 0 .736-1.152 0-1.152-.768 0-.768 1.152 0 1.152zM47.776 16.032v.064c0 .096 0 .16.064.224a.67.67 0 00.128.192.67.67 0 00.192.128c.064.032.16.064.224.064s.096 0 .16-.032c.096-.032.192-.064.256-.16a.442.442 0 00.096-.128c.064-.096.064-.192.064-.288v-.064c0-.096 0-.16-.064-.224-.032-.064-.064-.128-.128-.192s-.128-.096-.192-.128a.593.593 0 00-.224-.064c-.064 0-.096 0-.16.032-.096.032-.192.064-.256.16-.032.032-.064.064-.096.128a.934.934 0 00-.064.288zM50.816 15.2v.064c0 .096 0 .16.064.224a.67.67 0 00.128.192.67.67 0 00.192.128c.064.032.16.064.224.064s.096 0 .16-.032c.096-.032.192-.064.256-.16.032-.032.064-.064.096-.128.064-.096.064-.192.064-.288V15.2c0-.096 0-.16-.064-.224a.67.67 0 00-.128-.192c-.064-.064-.128-.096-.192-.128a.593.593 0 00-.224-.064c-.064 0-.096 0-.16.032-.096.032-.192.064-.256.16-.032.032-.064.064-.096.128a.639.639 0 00-.064.288z"/>
        </g>
        <path fill="#72B62E" fill-rule="nonzero" d="M25.184 10.688c.128.096 0 0 0 0l-.128-.128c-.096-.128-.032 0 0 0l-.096-.128-.128-.256s.064.16 0 0c0-.032-.032-.096-.032-.128 0-.064-.032-.096-.032-.16 0-.032-.032-.192 0-.064V9.76 9.6v-.128c0-.096-.032.16 0 0 .032-.096.032-.192.064-.288 0-.032.032-.16 0 0 0-.032.032-.096.064-.128.064-.096.096-.192.16-.256-.064.096-.064.064 0 0l.096-.096.128-.128c.032 0 .128-.128.064-.064-.096.064.032-.032.064-.032.064-.032.096-.064.16-.096s.192-.128.256-.128c-.064 0-.096.032 0 0 .032 0 .096-.032.128-.032.064 0 .128-.032.16-.032s.224-.032.032 0c.384-.032.8-.32.768-.768-.032-.384-.352-.832-.768-.768-1.28.16-2.368.928-2.816 2.176a2.76 2.76 0 000 1.76c.192.64.576 1.152 1.088 1.536.32.256.864.064 1.056-.288.192-.512.032-.896-.288-1.152z" transform="translate(3.2 4.16)"/>
        <path fill="#72B62E" fill-rule="nonzero" d="M22.272 13.184c-1.056-1.472-1.376-3.424-.672-5.12.672-1.6 2.176-2.752 3.872-3.104.416-.096.64-.576.544-.928-.128-.416-.544-.608-.928-.544-2.112.416-3.968 1.92-4.832 3.904-.928 2.112-.64 4.672.736 6.56.256.32.672.512 1.056.288.256-.192.448-.704.224-1.056z" transform="translate(3.2 4.16)"/>
        <path fill="#72B62E" fill-rule="nonzero" d="M18.048 15.2c-1.12-1.92-1.568-4.224-1.056-6.4a9.106 9.106 0 013.232-5.152c1.088-.832 2.336-1.44 3.552-2.016.384-.192.48-.704.288-1.056-.224-.384-.672-.448-1.056-.288-1.152.576-2.336 1.152-3.36 1.888a10.753 10.753 0 00-2.592 2.656c-1.376 2.048-2.016 4.544-1.728 6.976.192 1.472.64 2.88 1.408 4.16.512.864 1.824.096 1.312-.768z" transform="translate(3.2 4.16)"/>
        <path stroke="#020203" stroke-width=".5" d="M18.56 54.944s.128-3.712-.128-5.344" transform="translate(3.2 4.16)"/>
    </g>
</svg>
